<mxfile host="app.diagrams.net" agent="Mozilla/5.0 (Windows NT 10.0; Win64; x64) AppleWebKit/537.36 (KHTML, like Gecko) Chrome/129.0.0.0 Safari/537.36 Edg/129.0.0.0" version="24.7.6">
  <diagram name="第 1 页" id="0aLXixqpKB4D2GW43M1c">
    <mxGraphModel dx="2253" dy="765" grid="1" gridSize="10" guides="1" tooltips="1" connect="1" arrows="0" fold="1" page="1" pageScale="1" pageWidth="827" pageHeight="1169" math="0" shadow="0">
      <root>
        <mxCell id="0" />
        <mxCell id="1" parent="0" />
        <mxCell id="wqeLGXHDsi9o7vKBSGzO-7" style="edgeStyle=orthogonalEdgeStyle;rounded=0;orthogonalLoop=1;jettySize=auto;html=1;" edge="1" parent="1" source="wqeLGXHDsi9o7vKBSGzO-2" target="wqeLGXHDsi9o7vKBSGzO-6">
          <mxGeometry relative="1" as="geometry" />
        </mxCell>
        <mxCell id="wqeLGXHDsi9o7vKBSGzO-2" value="零件环境" style="rounded=0;whiteSpace=wrap;html=1;" vertex="1" parent="1">
          <mxGeometry x="180" y="80" width="120" height="60" as="geometry" />
        </mxCell>
        <mxCell id="wqeLGXHDsi9o7vKBSGzO-126" style="edgeStyle=orthogonalEdgeStyle;rounded=0;orthogonalLoop=1;jettySize=auto;html=1;" edge="1" parent="1" source="wqeLGXHDsi9o7vKBSGzO-3" target="wqeLGXHDsi9o7vKBSGzO-8">
          <mxGeometry relative="1" as="geometry" />
        </mxCell>
        <mxCell id="wqeLGXHDsi9o7vKBSGzO-3" value="装配环境" style="rounded=0;whiteSpace=wrap;html=1;" vertex="1" parent="1">
          <mxGeometry x="540" y="80" width="120" height="60" as="geometry" />
        </mxCell>
        <mxCell id="wqeLGXHDsi9o7vKBSGzO-11" style="edgeStyle=orthogonalEdgeStyle;rounded=0;orthogonalLoop=1;jettySize=auto;html=1;" edge="1" parent="1" source="wqeLGXHDsi9o7vKBSGzO-6" target="wqeLGXHDsi9o7vKBSGzO-10">
          <mxGeometry relative="1" as="geometry" />
        </mxCell>
        <mxCell id="wqeLGXHDsi9o7vKBSGzO-6" value="识别出参与剖切的&lt;div&gt;实体&lt;/div&gt;" style="rounded=0;whiteSpace=wrap;html=1;" vertex="1" parent="1">
          <mxGeometry x="180" y="180" width="120" height="60" as="geometry" />
        </mxCell>
        <mxCell id="wqeLGXHDsi9o7vKBSGzO-127" style="edgeStyle=orthogonalEdgeStyle;rounded=0;orthogonalLoop=1;jettySize=auto;html=1;" edge="1" parent="1" source="wqeLGXHDsi9o7vKBSGzO-8" target="wqeLGXHDsi9o7vKBSGzO-125">
          <mxGeometry relative="1" as="geometry" />
        </mxCell>
        <mxCell id="wqeLGXHDsi9o7vKBSGzO-8" value="识别出参与剖切的&lt;div&gt;组件与装配shape&lt;/div&gt;" style="rounded=0;whiteSpace=wrap;html=1;" vertex="1" parent="1">
          <mxGeometry x="540" y="180" width="120" height="60" as="geometry" />
        </mxCell>
        <mxCell id="wqeLGXHDsi9o7vKBSGzO-124" style="edgeStyle=orthogonalEdgeStyle;rounded=0;orthogonalLoop=1;jettySize=auto;html=1;" edge="1" parent="1" source="wqeLGXHDsi9o7vKBSGzO-10" target="wqeLGXHDsi9o7vKBSGzO-12">
          <mxGeometry relative="1" as="geometry" />
        </mxCell>
        <mxCell id="wqeLGXHDsi9o7vKBSGzO-10" value="计算每个实体的&lt;div&gt;剖切区域Region&lt;/div&gt;" style="rounded=0;whiteSpace=wrap;html=1;fillColor=#dae8fc;strokeColor=#6c8ebf;" vertex="1" parent="1">
          <mxGeometry x="180" y="280" width="120" height="60" as="geometry" />
        </mxCell>
        <mxCell id="wqeLGXHDsi9o7vKBSGzO-117" style="edgeStyle=orthogonalEdgeStyle;rounded=0;orthogonalLoop=1;jettySize=auto;html=1;" edge="1" parent="1" source="wqeLGXHDsi9o7vKBSGzO-12" target="wqeLGXHDsi9o7vKBSGzO-13">
          <mxGeometry relative="1" as="geometry" />
        </mxCell>
        <mxCell id="wqeLGXHDsi9o7vKBSGzO-12" value="合并所有Region" style="rounded=0;whiteSpace=wrap;html=1;" vertex="1" parent="1">
          <mxGeometry x="354" y="380" width="120" height="60" as="geometry" />
        </mxCell>
        <mxCell id="wqeLGXHDsi9o7vKBSGzO-118" style="edgeStyle=orthogonalEdgeStyle;rounded=0;orthogonalLoop=1;jettySize=auto;html=1;" edge="1" parent="1" source="wqeLGXHDsi9o7vKBSGzO-13" target="wqeLGXHDsi9o7vKBSGzO-14">
          <mxGeometry relative="1" as="geometry" />
        </mxCell>
        <mxCell id="wqeLGXHDsi9o7vKBSGzO-13" value="分割总Region，输出各个最小Region" style="rounded=0;whiteSpace=wrap;html=1;" vertex="1" parent="1">
          <mxGeometry x="354" y="490" width="120" height="60" as="geometry" />
        </mxCell>
        <mxCell id="wqeLGXHDsi9o7vKBSGzO-14" value="对每个最小Region，&lt;div&gt;判断是否在各个实体Region内&lt;/div&gt;&lt;div&gt;（填表，如右图）&lt;/div&gt;" style="rounded=0;whiteSpace=wrap;html=1;" vertex="1" parent="1">
          <mxGeometry x="354" y="610" width="120" height="80" as="geometry" />
        </mxCell>
        <mxCell id="wqeLGXHDsi9o7vKBSGzO-16" value="" style="shape=table;startSize=0;container=1;collapsible=0;childLayout=tableLayout;fontSize=12;" vertex="1" parent="1">
          <mxGeometry x="827" y="370" width="420" height="440" as="geometry" />
        </mxCell>
        <mxCell id="wqeLGXHDsi9o7vKBSGzO-17" value="" style="shape=tableRow;horizontal=0;startSize=0;swimlaneHead=0;swimlaneBody=0;strokeColor=inherit;top=0;left=0;bottom=0;right=0;collapsible=0;dropTarget=0;fillColor=none;points=[[0,0.5],[1,0.5]];portConstraint=eastwest;fontSize=12;" vertex="1" parent="wqeLGXHDsi9o7vKBSGzO-16">
          <mxGeometry width="420" height="40" as="geometry" />
        </mxCell>
        <mxCell id="wqeLGXHDsi9o7vKBSGzO-18" value="" style="shape=partialRectangle;html=1;whiteSpace=wrap;connectable=0;strokeColor=inherit;overflow=hidden;fillColor=none;top=0;left=0;bottom=0;right=0;pointerEvents=1;fontSize=12;" vertex="1" parent="wqeLGXHDsi9o7vKBSGzO-17">
          <mxGeometry width="60" height="40" as="geometry">
            <mxRectangle width="60" height="40" as="alternateBounds" />
          </mxGeometry>
        </mxCell>
        <mxCell id="wqeLGXHDsi9o7vKBSGzO-19" value="s1" style="shape=partialRectangle;html=1;whiteSpace=wrap;connectable=0;strokeColor=inherit;overflow=hidden;fillColor=none;top=0;left=0;bottom=0;right=0;pointerEvents=1;fontSize=12;" vertex="1" parent="wqeLGXHDsi9o7vKBSGzO-17">
          <mxGeometry x="60" width="60" height="40" as="geometry">
            <mxRectangle width="60" height="40" as="alternateBounds" />
          </mxGeometry>
        </mxCell>
        <mxCell id="wqeLGXHDsi9o7vKBSGzO-20" value="s2" style="shape=partialRectangle;html=1;whiteSpace=wrap;connectable=0;strokeColor=inherit;overflow=hidden;fillColor=none;top=0;left=0;bottom=0;right=0;pointerEvents=1;fontSize=12;" vertex="1" parent="wqeLGXHDsi9o7vKBSGzO-17">
          <mxGeometry x="120" width="60" height="40" as="geometry">
            <mxRectangle width="60" height="40" as="alternateBounds" />
          </mxGeometry>
        </mxCell>
        <mxCell id="wqeLGXHDsi9o7vKBSGzO-21" value="s3" style="shape=partialRectangle;html=1;whiteSpace=wrap;connectable=0;strokeColor=inherit;overflow=hidden;fillColor=none;top=0;left=0;bottom=0;right=0;pointerEvents=1;fontSize=12;" vertex="1" parent="wqeLGXHDsi9o7vKBSGzO-17">
          <mxGeometry x="180" width="60" height="40" as="geometry">
            <mxRectangle width="60" height="40" as="alternateBounds" />
          </mxGeometry>
        </mxCell>
        <mxCell id="wqeLGXHDsi9o7vKBSGzO-22" value="s4" style="shape=partialRectangle;html=1;whiteSpace=wrap;connectable=0;strokeColor=inherit;overflow=hidden;fillColor=none;top=0;left=0;bottom=0;right=0;pointerEvents=1;fontSize=12;" vertex="1" parent="wqeLGXHDsi9o7vKBSGzO-17">
          <mxGeometry x="240" width="60" height="40" as="geometry">
            <mxRectangle width="60" height="40" as="alternateBounds" />
          </mxGeometry>
        </mxCell>
        <mxCell id="wqeLGXHDsi9o7vKBSGzO-23" value="s5" style="shape=partialRectangle;html=1;whiteSpace=wrap;connectable=0;strokeColor=inherit;overflow=hidden;fillColor=none;top=0;left=0;bottom=0;right=0;pointerEvents=1;fontSize=12;" vertex="1" parent="wqeLGXHDsi9o7vKBSGzO-17">
          <mxGeometry x="300" width="60" height="40" as="geometry">
            <mxRectangle width="60" height="40" as="alternateBounds" />
          </mxGeometry>
        </mxCell>
        <mxCell id="wqeLGXHDsi9o7vKBSGzO-24" value="..." style="shape=partialRectangle;html=1;whiteSpace=wrap;connectable=0;strokeColor=inherit;overflow=hidden;fillColor=none;top=0;left=0;bottom=0;right=0;pointerEvents=1;fontSize=12;" vertex="1" parent="wqeLGXHDsi9o7vKBSGzO-17">
          <mxGeometry x="360" width="60" height="40" as="geometry">
            <mxRectangle width="60" height="40" as="alternateBounds" />
          </mxGeometry>
        </mxCell>
        <mxCell id="wqeLGXHDsi9o7vKBSGzO-25" value="" style="shape=tableRow;horizontal=0;startSize=0;swimlaneHead=0;swimlaneBody=0;strokeColor=inherit;top=0;left=0;bottom=0;right=0;collapsible=0;dropTarget=0;fillColor=none;points=[[0,0.5],[1,0.5]];portConstraint=eastwest;fontSize=12;" vertex="1" parent="wqeLGXHDsi9o7vKBSGzO-16">
          <mxGeometry y="40" width="420" height="40" as="geometry" />
        </mxCell>
        <mxCell id="wqeLGXHDsi9o7vKBSGzO-26" value="r1" style="shape=partialRectangle;html=1;whiteSpace=wrap;connectable=0;strokeColor=inherit;overflow=hidden;fillColor=none;top=0;left=0;bottom=0;right=0;pointerEvents=1;fontSize=12;" vertex="1" parent="wqeLGXHDsi9o7vKBSGzO-25">
          <mxGeometry width="60" height="40" as="geometry">
            <mxRectangle width="60" height="40" as="alternateBounds" />
          </mxGeometry>
        </mxCell>
        <mxCell id="wqeLGXHDsi9o7vKBSGzO-27" value="" style="shape=partialRectangle;html=1;whiteSpace=wrap;connectable=0;strokeColor=inherit;overflow=hidden;fillColor=none;top=0;left=0;bottom=0;right=0;pointerEvents=1;fontSize=12;" vertex="1" parent="wqeLGXHDsi9o7vKBSGzO-25">
          <mxGeometry x="60" width="60" height="40" as="geometry">
            <mxRectangle width="60" height="40" as="alternateBounds" />
          </mxGeometry>
        </mxCell>
        <mxCell id="wqeLGXHDsi9o7vKBSGzO-28" value="1" style="shape=partialRectangle;html=1;whiteSpace=wrap;connectable=0;strokeColor=inherit;overflow=hidden;fillColor=none;top=0;left=0;bottom=0;right=0;pointerEvents=1;fontSize=12;" vertex="1" parent="wqeLGXHDsi9o7vKBSGzO-25">
          <mxGeometry x="120" width="60" height="40" as="geometry">
            <mxRectangle width="60" height="40" as="alternateBounds" />
          </mxGeometry>
        </mxCell>
        <mxCell id="wqeLGXHDsi9o7vKBSGzO-29" value="" style="shape=partialRectangle;html=1;whiteSpace=wrap;connectable=0;strokeColor=inherit;overflow=hidden;fillColor=none;top=0;left=0;bottom=0;right=0;pointerEvents=1;fontSize=12;" vertex="1" parent="wqeLGXHDsi9o7vKBSGzO-25">
          <mxGeometry x="180" width="60" height="40" as="geometry">
            <mxRectangle width="60" height="40" as="alternateBounds" />
          </mxGeometry>
        </mxCell>
        <mxCell id="wqeLGXHDsi9o7vKBSGzO-30" value="1" style="shape=partialRectangle;html=1;whiteSpace=wrap;connectable=0;strokeColor=inherit;overflow=hidden;fillColor=none;top=0;left=0;bottom=0;right=0;pointerEvents=1;fontSize=12;" vertex="1" parent="wqeLGXHDsi9o7vKBSGzO-25">
          <mxGeometry x="240" width="60" height="40" as="geometry">
            <mxRectangle width="60" height="40" as="alternateBounds" />
          </mxGeometry>
        </mxCell>
        <mxCell id="wqeLGXHDsi9o7vKBSGzO-31" value="" style="shape=partialRectangle;html=1;whiteSpace=wrap;connectable=0;strokeColor=inherit;overflow=hidden;fillColor=none;top=0;left=0;bottom=0;right=0;pointerEvents=1;fontSize=12;" vertex="1" parent="wqeLGXHDsi9o7vKBSGzO-25">
          <mxGeometry x="300" width="60" height="40" as="geometry">
            <mxRectangle width="60" height="40" as="alternateBounds" />
          </mxGeometry>
        </mxCell>
        <mxCell id="wqeLGXHDsi9o7vKBSGzO-32" value="" style="shape=partialRectangle;html=1;whiteSpace=wrap;connectable=0;strokeColor=inherit;overflow=hidden;fillColor=none;top=0;left=0;bottom=0;right=0;pointerEvents=1;fontSize=12;" vertex="1" parent="wqeLGXHDsi9o7vKBSGzO-25">
          <mxGeometry x="360" width="60" height="40" as="geometry">
            <mxRectangle width="60" height="40" as="alternateBounds" />
          </mxGeometry>
        </mxCell>
        <mxCell id="wqeLGXHDsi9o7vKBSGzO-33" value="" style="shape=tableRow;horizontal=0;startSize=0;swimlaneHead=0;swimlaneBody=0;strokeColor=inherit;top=0;left=0;bottom=0;right=0;collapsible=0;dropTarget=0;fillColor=none;points=[[0,0.5],[1,0.5]];portConstraint=eastwest;fontSize=12;" vertex="1" parent="wqeLGXHDsi9o7vKBSGzO-16">
          <mxGeometry y="80" width="420" height="40" as="geometry" />
        </mxCell>
        <mxCell id="wqeLGXHDsi9o7vKBSGzO-34" value="r2" style="shape=partialRectangle;html=1;whiteSpace=wrap;connectable=0;strokeColor=inherit;overflow=hidden;fillColor=none;top=0;left=0;bottom=0;right=0;pointerEvents=1;fontSize=12;" vertex="1" parent="wqeLGXHDsi9o7vKBSGzO-33">
          <mxGeometry width="60" height="40" as="geometry">
            <mxRectangle width="60" height="40" as="alternateBounds" />
          </mxGeometry>
        </mxCell>
        <mxCell id="wqeLGXHDsi9o7vKBSGzO-35" value="1" style="shape=partialRectangle;html=1;whiteSpace=wrap;connectable=0;strokeColor=inherit;overflow=hidden;fillColor=none;top=0;left=0;bottom=0;right=0;pointerEvents=1;fontSize=12;" vertex="1" parent="wqeLGXHDsi9o7vKBSGzO-33">
          <mxGeometry x="60" width="60" height="40" as="geometry">
            <mxRectangle width="60" height="40" as="alternateBounds" />
          </mxGeometry>
        </mxCell>
        <mxCell id="wqeLGXHDsi9o7vKBSGzO-36" value="" style="shape=partialRectangle;html=1;whiteSpace=wrap;connectable=0;strokeColor=inherit;overflow=hidden;fillColor=none;top=0;left=0;bottom=0;right=0;pointerEvents=1;fontSize=12;" vertex="1" parent="wqeLGXHDsi9o7vKBSGzO-33">
          <mxGeometry x="120" width="60" height="40" as="geometry">
            <mxRectangle width="60" height="40" as="alternateBounds" />
          </mxGeometry>
        </mxCell>
        <mxCell id="wqeLGXHDsi9o7vKBSGzO-37" value="" style="shape=partialRectangle;html=1;whiteSpace=wrap;connectable=0;strokeColor=inherit;overflow=hidden;fillColor=none;top=0;left=0;bottom=0;right=0;pointerEvents=1;fontSize=12;" vertex="1" parent="wqeLGXHDsi9o7vKBSGzO-33">
          <mxGeometry x="180" width="60" height="40" as="geometry">
            <mxRectangle width="60" height="40" as="alternateBounds" />
          </mxGeometry>
        </mxCell>
        <mxCell id="wqeLGXHDsi9o7vKBSGzO-38" value="" style="shape=partialRectangle;html=1;whiteSpace=wrap;connectable=0;strokeColor=inherit;overflow=hidden;fillColor=none;top=0;left=0;bottom=0;right=0;pointerEvents=1;fontSize=12;" vertex="1" parent="wqeLGXHDsi9o7vKBSGzO-33">
          <mxGeometry x="240" width="60" height="40" as="geometry">
            <mxRectangle width="60" height="40" as="alternateBounds" />
          </mxGeometry>
        </mxCell>
        <mxCell id="wqeLGXHDsi9o7vKBSGzO-39" value="" style="shape=partialRectangle;html=1;whiteSpace=wrap;connectable=0;strokeColor=inherit;overflow=hidden;fillColor=none;top=0;left=0;bottom=0;right=0;pointerEvents=1;fontSize=12;" vertex="1" parent="wqeLGXHDsi9o7vKBSGzO-33">
          <mxGeometry x="300" width="60" height="40" as="geometry">
            <mxRectangle width="60" height="40" as="alternateBounds" />
          </mxGeometry>
        </mxCell>
        <mxCell id="wqeLGXHDsi9o7vKBSGzO-40" value="" style="shape=partialRectangle;html=1;whiteSpace=wrap;connectable=0;strokeColor=inherit;overflow=hidden;fillColor=none;top=0;left=0;bottom=0;right=0;pointerEvents=1;fontSize=12;" vertex="1" parent="wqeLGXHDsi9o7vKBSGzO-33">
          <mxGeometry x="360" width="60" height="40" as="geometry">
            <mxRectangle width="60" height="40" as="alternateBounds" />
          </mxGeometry>
        </mxCell>
        <mxCell id="wqeLGXHDsi9o7vKBSGzO-41" value="" style="shape=tableRow;horizontal=0;startSize=0;swimlaneHead=0;swimlaneBody=0;strokeColor=inherit;top=0;left=0;bottom=0;right=0;collapsible=0;dropTarget=0;fillColor=none;points=[[0,0.5],[1,0.5]];portConstraint=eastwest;fontSize=12;" vertex="1" parent="wqeLGXHDsi9o7vKBSGzO-16">
          <mxGeometry y="120" width="420" height="40" as="geometry" />
        </mxCell>
        <mxCell id="wqeLGXHDsi9o7vKBSGzO-42" value="r3" style="shape=partialRectangle;html=1;whiteSpace=wrap;connectable=0;strokeColor=inherit;overflow=hidden;fillColor=none;top=0;left=0;bottom=0;right=0;pointerEvents=1;fontSize=12;" vertex="1" parent="wqeLGXHDsi9o7vKBSGzO-41">
          <mxGeometry width="60" height="40" as="geometry">
            <mxRectangle width="60" height="40" as="alternateBounds" />
          </mxGeometry>
        </mxCell>
        <mxCell id="wqeLGXHDsi9o7vKBSGzO-43" value="" style="shape=partialRectangle;html=1;whiteSpace=wrap;connectable=0;strokeColor=inherit;overflow=hidden;fillColor=none;top=0;left=0;bottom=0;right=0;pointerEvents=1;fontSize=12;" vertex="1" parent="wqeLGXHDsi9o7vKBSGzO-41">
          <mxGeometry x="60" width="60" height="40" as="geometry">
            <mxRectangle width="60" height="40" as="alternateBounds" />
          </mxGeometry>
        </mxCell>
        <mxCell id="wqeLGXHDsi9o7vKBSGzO-44" value="1" style="shape=partialRectangle;html=1;whiteSpace=wrap;connectable=0;strokeColor=inherit;overflow=hidden;fillColor=none;top=0;left=0;bottom=0;right=0;pointerEvents=1;fontSize=12;" vertex="1" parent="wqeLGXHDsi9o7vKBSGzO-41">
          <mxGeometry x="120" width="60" height="40" as="geometry">
            <mxRectangle width="60" height="40" as="alternateBounds" />
          </mxGeometry>
        </mxCell>
        <mxCell id="wqeLGXHDsi9o7vKBSGzO-45" value="1" style="shape=partialRectangle;html=1;whiteSpace=wrap;connectable=0;strokeColor=inherit;overflow=hidden;fillColor=none;top=0;left=0;bottom=0;right=0;pointerEvents=1;fontSize=12;" vertex="1" parent="wqeLGXHDsi9o7vKBSGzO-41">
          <mxGeometry x="180" width="60" height="40" as="geometry">
            <mxRectangle width="60" height="40" as="alternateBounds" />
          </mxGeometry>
        </mxCell>
        <mxCell id="wqeLGXHDsi9o7vKBSGzO-46" value="1" style="shape=partialRectangle;html=1;whiteSpace=wrap;connectable=0;strokeColor=inherit;overflow=hidden;fillColor=none;top=0;left=0;bottom=0;right=0;pointerEvents=1;fontSize=12;" vertex="1" parent="wqeLGXHDsi9o7vKBSGzO-41">
          <mxGeometry x="240" width="60" height="40" as="geometry">
            <mxRectangle width="60" height="40" as="alternateBounds" />
          </mxGeometry>
        </mxCell>
        <mxCell id="wqeLGXHDsi9o7vKBSGzO-47" value="" style="shape=partialRectangle;html=1;whiteSpace=wrap;connectable=0;strokeColor=inherit;overflow=hidden;fillColor=none;top=0;left=0;bottom=0;right=0;pointerEvents=1;fontSize=12;" vertex="1" parent="wqeLGXHDsi9o7vKBSGzO-41">
          <mxGeometry x="300" width="60" height="40" as="geometry">
            <mxRectangle width="60" height="40" as="alternateBounds" />
          </mxGeometry>
        </mxCell>
        <mxCell id="wqeLGXHDsi9o7vKBSGzO-48" value="" style="shape=partialRectangle;html=1;whiteSpace=wrap;connectable=0;strokeColor=inherit;overflow=hidden;fillColor=none;top=0;left=0;bottom=0;right=0;pointerEvents=1;fontSize=12;" vertex="1" parent="wqeLGXHDsi9o7vKBSGzO-41">
          <mxGeometry x="360" width="60" height="40" as="geometry">
            <mxRectangle width="60" height="40" as="alternateBounds" />
          </mxGeometry>
        </mxCell>
        <mxCell id="wqeLGXHDsi9o7vKBSGzO-49" value="" style="shape=tableRow;horizontal=0;startSize=0;swimlaneHead=0;swimlaneBody=0;strokeColor=inherit;top=0;left=0;bottom=0;right=0;collapsible=0;dropTarget=0;fillColor=none;points=[[0,0.5],[1,0.5]];portConstraint=eastwest;fontSize=12;" vertex="1" parent="wqeLGXHDsi9o7vKBSGzO-16">
          <mxGeometry y="160" width="420" height="40" as="geometry" />
        </mxCell>
        <mxCell id="wqeLGXHDsi9o7vKBSGzO-50" value="r4" style="shape=partialRectangle;html=1;whiteSpace=wrap;connectable=0;strokeColor=inherit;overflow=hidden;fillColor=none;top=0;left=0;bottom=0;right=0;pointerEvents=1;fontSize=12;" vertex="1" parent="wqeLGXHDsi9o7vKBSGzO-49">
          <mxGeometry width="60" height="40" as="geometry">
            <mxRectangle width="60" height="40" as="alternateBounds" />
          </mxGeometry>
        </mxCell>
        <mxCell id="wqeLGXHDsi9o7vKBSGzO-51" value="" style="shape=partialRectangle;html=1;whiteSpace=wrap;connectable=0;strokeColor=inherit;overflow=hidden;fillColor=none;top=0;left=0;bottom=0;right=0;pointerEvents=1;fontSize=12;" vertex="1" parent="wqeLGXHDsi9o7vKBSGzO-49">
          <mxGeometry x="60" width="60" height="40" as="geometry">
            <mxRectangle width="60" height="40" as="alternateBounds" />
          </mxGeometry>
        </mxCell>
        <mxCell id="wqeLGXHDsi9o7vKBSGzO-52" value="" style="shape=partialRectangle;html=1;whiteSpace=wrap;connectable=0;strokeColor=inherit;overflow=hidden;fillColor=none;top=0;left=0;bottom=0;right=0;pointerEvents=1;fontSize=12;" vertex="1" parent="wqeLGXHDsi9o7vKBSGzO-49">
          <mxGeometry x="120" width="60" height="40" as="geometry">
            <mxRectangle width="60" height="40" as="alternateBounds" />
          </mxGeometry>
        </mxCell>
        <mxCell id="wqeLGXHDsi9o7vKBSGzO-53" value="" style="shape=partialRectangle;html=1;whiteSpace=wrap;connectable=0;strokeColor=inherit;overflow=hidden;fillColor=none;top=0;left=0;bottom=0;right=0;pointerEvents=1;fontSize=12;" vertex="1" parent="wqeLGXHDsi9o7vKBSGzO-49">
          <mxGeometry x="180" width="60" height="40" as="geometry">
            <mxRectangle width="60" height="40" as="alternateBounds" />
          </mxGeometry>
        </mxCell>
        <mxCell id="wqeLGXHDsi9o7vKBSGzO-54" value="" style="shape=partialRectangle;html=1;whiteSpace=wrap;connectable=0;strokeColor=inherit;overflow=hidden;fillColor=none;top=0;left=0;bottom=0;right=0;pointerEvents=1;fontSize=12;" vertex="1" parent="wqeLGXHDsi9o7vKBSGzO-49">
          <mxGeometry x="240" width="60" height="40" as="geometry">
            <mxRectangle width="60" height="40" as="alternateBounds" />
          </mxGeometry>
        </mxCell>
        <mxCell id="wqeLGXHDsi9o7vKBSGzO-55" value="1" style="shape=partialRectangle;html=1;whiteSpace=wrap;connectable=0;strokeColor=inherit;overflow=hidden;fillColor=none;top=0;left=0;bottom=0;right=0;pointerEvents=1;fontSize=12;" vertex="1" parent="wqeLGXHDsi9o7vKBSGzO-49">
          <mxGeometry x="300" width="60" height="40" as="geometry">
            <mxRectangle width="60" height="40" as="alternateBounds" />
          </mxGeometry>
        </mxCell>
        <mxCell id="wqeLGXHDsi9o7vKBSGzO-56" value="" style="shape=partialRectangle;html=1;whiteSpace=wrap;connectable=0;strokeColor=inherit;overflow=hidden;fillColor=none;top=0;left=0;bottom=0;right=0;pointerEvents=1;fontSize=12;" vertex="1" parent="wqeLGXHDsi9o7vKBSGzO-49">
          <mxGeometry x="360" width="60" height="40" as="geometry">
            <mxRectangle width="60" height="40" as="alternateBounds" />
          </mxGeometry>
        </mxCell>
        <mxCell id="wqeLGXHDsi9o7vKBSGzO-57" value="" style="shape=tableRow;horizontal=0;startSize=0;swimlaneHead=0;swimlaneBody=0;strokeColor=inherit;top=0;left=0;bottom=0;right=0;collapsible=0;dropTarget=0;fillColor=none;points=[[0,0.5],[1,0.5]];portConstraint=eastwest;fontSize=12;" vertex="1" parent="wqeLGXHDsi9o7vKBSGzO-16">
          <mxGeometry y="200" width="420" height="40" as="geometry" />
        </mxCell>
        <mxCell id="wqeLGXHDsi9o7vKBSGzO-58" value="r5" style="shape=partialRectangle;html=1;whiteSpace=wrap;connectable=0;strokeColor=inherit;overflow=hidden;fillColor=none;top=0;left=0;bottom=0;right=0;pointerEvents=1;fontSize=12;" vertex="1" parent="wqeLGXHDsi9o7vKBSGzO-57">
          <mxGeometry width="60" height="40" as="geometry">
            <mxRectangle width="60" height="40" as="alternateBounds" />
          </mxGeometry>
        </mxCell>
        <mxCell id="wqeLGXHDsi9o7vKBSGzO-59" value="" style="shape=partialRectangle;html=1;whiteSpace=wrap;connectable=0;strokeColor=inherit;overflow=hidden;fillColor=none;top=0;left=0;bottom=0;right=0;pointerEvents=1;fontSize=12;" vertex="1" parent="wqeLGXHDsi9o7vKBSGzO-57">
          <mxGeometry x="60" width="60" height="40" as="geometry">
            <mxRectangle width="60" height="40" as="alternateBounds" />
          </mxGeometry>
        </mxCell>
        <mxCell id="wqeLGXHDsi9o7vKBSGzO-60" value="1" style="shape=partialRectangle;html=1;whiteSpace=wrap;connectable=0;strokeColor=inherit;overflow=hidden;fillColor=none;top=0;left=0;bottom=0;right=0;pointerEvents=1;fontSize=12;" vertex="1" parent="wqeLGXHDsi9o7vKBSGzO-57">
          <mxGeometry x="120" width="60" height="40" as="geometry">
            <mxRectangle width="60" height="40" as="alternateBounds" />
          </mxGeometry>
        </mxCell>
        <mxCell id="wqeLGXHDsi9o7vKBSGzO-61" value="" style="shape=partialRectangle;html=1;whiteSpace=wrap;connectable=0;strokeColor=inherit;overflow=hidden;fillColor=none;top=0;left=0;bottom=0;right=0;pointerEvents=1;fontSize=12;" vertex="1" parent="wqeLGXHDsi9o7vKBSGzO-57">
          <mxGeometry x="180" width="60" height="40" as="geometry">
            <mxRectangle width="60" height="40" as="alternateBounds" />
          </mxGeometry>
        </mxCell>
        <mxCell id="wqeLGXHDsi9o7vKBSGzO-62" value="1" style="shape=partialRectangle;html=1;whiteSpace=wrap;connectable=0;strokeColor=inherit;overflow=hidden;fillColor=none;top=0;left=0;bottom=0;right=0;pointerEvents=1;fontSize=12;" vertex="1" parent="wqeLGXHDsi9o7vKBSGzO-57">
          <mxGeometry x="240" width="60" height="40" as="geometry">
            <mxRectangle width="60" height="40" as="alternateBounds" />
          </mxGeometry>
        </mxCell>
        <mxCell id="wqeLGXHDsi9o7vKBSGzO-63" value="" style="shape=partialRectangle;html=1;whiteSpace=wrap;connectable=0;strokeColor=inherit;overflow=hidden;fillColor=none;top=0;left=0;bottom=0;right=0;pointerEvents=1;fontSize=12;" vertex="1" parent="wqeLGXHDsi9o7vKBSGzO-57">
          <mxGeometry x="300" width="60" height="40" as="geometry">
            <mxRectangle width="60" height="40" as="alternateBounds" />
          </mxGeometry>
        </mxCell>
        <mxCell id="wqeLGXHDsi9o7vKBSGzO-64" value="" style="shape=partialRectangle;html=1;whiteSpace=wrap;connectable=0;strokeColor=inherit;overflow=hidden;fillColor=none;top=0;left=0;bottom=0;right=0;pointerEvents=1;fontSize=12;" vertex="1" parent="wqeLGXHDsi9o7vKBSGzO-57">
          <mxGeometry x="360" width="60" height="40" as="geometry">
            <mxRectangle width="60" height="40" as="alternateBounds" />
          </mxGeometry>
        </mxCell>
        <mxCell id="wqeLGXHDsi9o7vKBSGzO-65" value="" style="shape=tableRow;horizontal=0;startSize=0;swimlaneHead=0;swimlaneBody=0;strokeColor=inherit;top=0;left=0;bottom=0;right=0;collapsible=0;dropTarget=0;fillColor=none;points=[[0,0.5],[1,0.5]];portConstraint=eastwest;fontSize=12;" vertex="1" parent="wqeLGXHDsi9o7vKBSGzO-16">
          <mxGeometry y="240" width="420" height="40" as="geometry" />
        </mxCell>
        <mxCell id="wqeLGXHDsi9o7vKBSGzO-66" value="r6" style="shape=partialRectangle;html=1;whiteSpace=wrap;connectable=0;strokeColor=inherit;overflow=hidden;fillColor=none;top=0;left=0;bottom=0;right=0;pointerEvents=1;fontSize=12;" vertex="1" parent="wqeLGXHDsi9o7vKBSGzO-65">
          <mxGeometry width="60" height="40" as="geometry">
            <mxRectangle width="60" height="40" as="alternateBounds" />
          </mxGeometry>
        </mxCell>
        <mxCell id="wqeLGXHDsi9o7vKBSGzO-67" value="" style="shape=partialRectangle;html=1;whiteSpace=wrap;connectable=0;strokeColor=inherit;overflow=hidden;fillColor=none;top=0;left=0;bottom=0;right=0;pointerEvents=1;fontSize=12;" vertex="1" parent="wqeLGXHDsi9o7vKBSGzO-65">
          <mxGeometry x="60" width="60" height="40" as="geometry">
            <mxRectangle width="60" height="40" as="alternateBounds" />
          </mxGeometry>
        </mxCell>
        <mxCell id="wqeLGXHDsi9o7vKBSGzO-68" value="" style="shape=partialRectangle;html=1;whiteSpace=wrap;connectable=0;strokeColor=inherit;overflow=hidden;fillColor=none;top=0;left=0;bottom=0;right=0;pointerEvents=1;fontSize=12;" vertex="1" parent="wqeLGXHDsi9o7vKBSGzO-65">
          <mxGeometry x="120" width="60" height="40" as="geometry">
            <mxRectangle width="60" height="40" as="alternateBounds" />
          </mxGeometry>
        </mxCell>
        <mxCell id="wqeLGXHDsi9o7vKBSGzO-69" value="" style="shape=partialRectangle;html=1;whiteSpace=wrap;connectable=0;strokeColor=inherit;overflow=hidden;fillColor=none;top=0;left=0;bottom=0;right=0;pointerEvents=1;fontSize=12;" vertex="1" parent="wqeLGXHDsi9o7vKBSGzO-65">
          <mxGeometry x="180" width="60" height="40" as="geometry">
            <mxRectangle width="60" height="40" as="alternateBounds" />
          </mxGeometry>
        </mxCell>
        <mxCell id="wqeLGXHDsi9o7vKBSGzO-70" value="1" style="shape=partialRectangle;html=1;whiteSpace=wrap;connectable=0;strokeColor=inherit;overflow=hidden;fillColor=none;top=0;left=0;bottom=0;right=0;pointerEvents=1;fontSize=12;" vertex="1" parent="wqeLGXHDsi9o7vKBSGzO-65">
          <mxGeometry x="240" width="60" height="40" as="geometry">
            <mxRectangle width="60" height="40" as="alternateBounds" />
          </mxGeometry>
        </mxCell>
        <mxCell id="wqeLGXHDsi9o7vKBSGzO-71" value="1" style="shape=partialRectangle;html=1;whiteSpace=wrap;connectable=0;strokeColor=inherit;overflow=hidden;fillColor=none;top=0;left=0;bottom=0;right=0;pointerEvents=1;fontSize=12;" vertex="1" parent="wqeLGXHDsi9o7vKBSGzO-65">
          <mxGeometry x="300" width="60" height="40" as="geometry">
            <mxRectangle width="60" height="40" as="alternateBounds" />
          </mxGeometry>
        </mxCell>
        <mxCell id="wqeLGXHDsi9o7vKBSGzO-72" value="" style="shape=partialRectangle;html=1;whiteSpace=wrap;connectable=0;strokeColor=inherit;overflow=hidden;fillColor=none;top=0;left=0;bottom=0;right=0;pointerEvents=1;fontSize=12;" vertex="1" parent="wqeLGXHDsi9o7vKBSGzO-65">
          <mxGeometry x="360" width="60" height="40" as="geometry">
            <mxRectangle width="60" height="40" as="alternateBounds" />
          </mxGeometry>
        </mxCell>
        <mxCell id="wqeLGXHDsi9o7vKBSGzO-73" value="" style="shape=tableRow;horizontal=0;startSize=0;swimlaneHead=0;swimlaneBody=0;strokeColor=inherit;top=0;left=0;bottom=0;right=0;collapsible=0;dropTarget=0;fillColor=none;points=[[0,0.5],[1,0.5]];portConstraint=eastwest;fontSize=12;" vertex="1" parent="wqeLGXHDsi9o7vKBSGzO-16">
          <mxGeometry y="280" width="420" height="40" as="geometry" />
        </mxCell>
        <mxCell id="wqeLGXHDsi9o7vKBSGzO-74" value="r7" style="shape=partialRectangle;html=1;whiteSpace=wrap;connectable=0;strokeColor=inherit;overflow=hidden;fillColor=none;top=0;left=0;bottom=0;right=0;pointerEvents=1;fontSize=12;" vertex="1" parent="wqeLGXHDsi9o7vKBSGzO-73">
          <mxGeometry width="60" height="40" as="geometry">
            <mxRectangle width="60" height="40" as="alternateBounds" />
          </mxGeometry>
        </mxCell>
        <mxCell id="wqeLGXHDsi9o7vKBSGzO-75" value="1" style="shape=partialRectangle;html=1;whiteSpace=wrap;connectable=0;strokeColor=inherit;overflow=hidden;fillColor=none;top=0;left=0;bottom=0;right=0;pointerEvents=1;fontSize=12;" vertex="1" parent="wqeLGXHDsi9o7vKBSGzO-73">
          <mxGeometry x="60" width="60" height="40" as="geometry">
            <mxRectangle width="60" height="40" as="alternateBounds" />
          </mxGeometry>
        </mxCell>
        <mxCell id="wqeLGXHDsi9o7vKBSGzO-76" value="" style="shape=partialRectangle;html=1;whiteSpace=wrap;connectable=0;strokeColor=inherit;overflow=hidden;fillColor=none;top=0;left=0;bottom=0;right=0;pointerEvents=1;fontSize=12;" vertex="1" parent="wqeLGXHDsi9o7vKBSGzO-73">
          <mxGeometry x="120" width="60" height="40" as="geometry">
            <mxRectangle width="60" height="40" as="alternateBounds" />
          </mxGeometry>
        </mxCell>
        <mxCell id="wqeLGXHDsi9o7vKBSGzO-77" value="" style="shape=partialRectangle;html=1;whiteSpace=wrap;connectable=0;strokeColor=inherit;overflow=hidden;fillColor=none;top=0;left=0;bottom=0;right=0;pointerEvents=1;fontSize=12;" vertex="1" parent="wqeLGXHDsi9o7vKBSGzO-73">
          <mxGeometry x="180" width="60" height="40" as="geometry">
            <mxRectangle width="60" height="40" as="alternateBounds" />
          </mxGeometry>
        </mxCell>
        <mxCell id="wqeLGXHDsi9o7vKBSGzO-78" value="" style="shape=partialRectangle;html=1;whiteSpace=wrap;connectable=0;strokeColor=inherit;overflow=hidden;fillColor=none;top=0;left=0;bottom=0;right=0;pointerEvents=1;fontSize=12;" vertex="1" parent="wqeLGXHDsi9o7vKBSGzO-73">
          <mxGeometry x="240" width="60" height="40" as="geometry">
            <mxRectangle width="60" height="40" as="alternateBounds" />
          </mxGeometry>
        </mxCell>
        <mxCell id="wqeLGXHDsi9o7vKBSGzO-79" value="" style="shape=partialRectangle;html=1;whiteSpace=wrap;connectable=0;strokeColor=inherit;overflow=hidden;fillColor=none;top=0;left=0;bottom=0;right=0;pointerEvents=1;fontSize=12;" vertex="1" parent="wqeLGXHDsi9o7vKBSGzO-73">
          <mxGeometry x="300" width="60" height="40" as="geometry">
            <mxRectangle width="60" height="40" as="alternateBounds" />
          </mxGeometry>
        </mxCell>
        <mxCell id="wqeLGXHDsi9o7vKBSGzO-80" value="" style="shape=partialRectangle;html=1;whiteSpace=wrap;connectable=0;strokeColor=inherit;overflow=hidden;fillColor=none;top=0;left=0;bottom=0;right=0;pointerEvents=1;fontSize=12;" vertex="1" parent="wqeLGXHDsi9o7vKBSGzO-73">
          <mxGeometry x="360" width="60" height="40" as="geometry">
            <mxRectangle width="60" height="40" as="alternateBounds" />
          </mxGeometry>
        </mxCell>
        <mxCell id="wqeLGXHDsi9o7vKBSGzO-81" value="" style="shape=tableRow;horizontal=0;startSize=0;swimlaneHead=0;swimlaneBody=0;strokeColor=inherit;top=0;left=0;bottom=0;right=0;collapsible=0;dropTarget=0;fillColor=none;points=[[0,0.5],[1,0.5]];portConstraint=eastwest;fontSize=12;" vertex="1" parent="wqeLGXHDsi9o7vKBSGzO-16">
          <mxGeometry y="320" width="420" height="40" as="geometry" />
        </mxCell>
        <mxCell id="wqeLGXHDsi9o7vKBSGzO-82" value="r8" style="shape=partialRectangle;html=1;whiteSpace=wrap;connectable=0;strokeColor=inherit;overflow=hidden;fillColor=none;top=0;left=0;bottom=0;right=0;pointerEvents=1;fontSize=12;" vertex="1" parent="wqeLGXHDsi9o7vKBSGzO-81">
          <mxGeometry width="60" height="40" as="geometry">
            <mxRectangle width="60" height="40" as="alternateBounds" />
          </mxGeometry>
        </mxCell>
        <mxCell id="wqeLGXHDsi9o7vKBSGzO-83" value="" style="shape=partialRectangle;html=1;whiteSpace=wrap;connectable=0;strokeColor=inherit;overflow=hidden;fillColor=none;top=0;left=0;bottom=0;right=0;pointerEvents=1;fontSize=12;" vertex="1" parent="wqeLGXHDsi9o7vKBSGzO-81">
          <mxGeometry x="60" width="60" height="40" as="geometry">
            <mxRectangle width="60" height="40" as="alternateBounds" />
          </mxGeometry>
        </mxCell>
        <mxCell id="wqeLGXHDsi9o7vKBSGzO-84" value="" style="shape=partialRectangle;html=1;whiteSpace=wrap;connectable=0;strokeColor=inherit;overflow=hidden;fillColor=none;top=0;left=0;bottom=0;right=0;pointerEvents=1;fontSize=12;" vertex="1" parent="wqeLGXHDsi9o7vKBSGzO-81">
          <mxGeometry x="120" width="60" height="40" as="geometry">
            <mxRectangle width="60" height="40" as="alternateBounds" />
          </mxGeometry>
        </mxCell>
        <mxCell id="wqeLGXHDsi9o7vKBSGzO-85" value="" style="shape=partialRectangle;html=1;whiteSpace=wrap;connectable=0;strokeColor=inherit;overflow=hidden;fillColor=none;top=0;left=0;bottom=0;right=0;pointerEvents=1;fontSize=12;" vertex="1" parent="wqeLGXHDsi9o7vKBSGzO-81">
          <mxGeometry x="180" width="60" height="40" as="geometry">
            <mxRectangle width="60" height="40" as="alternateBounds" />
          </mxGeometry>
        </mxCell>
        <mxCell id="wqeLGXHDsi9o7vKBSGzO-86" value="" style="shape=partialRectangle;html=1;whiteSpace=wrap;connectable=0;strokeColor=inherit;overflow=hidden;fillColor=none;top=0;left=0;bottom=0;right=0;pointerEvents=1;fontSize=12;" vertex="1" parent="wqeLGXHDsi9o7vKBSGzO-81">
          <mxGeometry x="240" width="60" height="40" as="geometry">
            <mxRectangle width="60" height="40" as="alternateBounds" />
          </mxGeometry>
        </mxCell>
        <mxCell id="wqeLGXHDsi9o7vKBSGzO-87" value="1" style="shape=partialRectangle;html=1;whiteSpace=wrap;connectable=0;strokeColor=inherit;overflow=hidden;fillColor=none;top=0;left=0;bottom=0;right=0;pointerEvents=1;fontSize=12;" vertex="1" parent="wqeLGXHDsi9o7vKBSGzO-81">
          <mxGeometry x="300" width="60" height="40" as="geometry">
            <mxRectangle width="60" height="40" as="alternateBounds" />
          </mxGeometry>
        </mxCell>
        <mxCell id="wqeLGXHDsi9o7vKBSGzO-88" value="" style="shape=partialRectangle;html=1;whiteSpace=wrap;connectable=0;strokeColor=inherit;overflow=hidden;fillColor=none;top=0;left=0;bottom=0;right=0;pointerEvents=1;fontSize=12;" vertex="1" parent="wqeLGXHDsi9o7vKBSGzO-81">
          <mxGeometry x="360" width="60" height="40" as="geometry">
            <mxRectangle width="60" height="40" as="alternateBounds" />
          </mxGeometry>
        </mxCell>
        <mxCell id="wqeLGXHDsi9o7vKBSGzO-89" value="" style="shape=tableRow;horizontal=0;startSize=0;swimlaneHead=0;swimlaneBody=0;strokeColor=inherit;top=0;left=0;bottom=0;right=0;collapsible=0;dropTarget=0;fillColor=none;points=[[0,0.5],[1,0.5]];portConstraint=eastwest;fontSize=12;" vertex="1" parent="wqeLGXHDsi9o7vKBSGzO-16">
          <mxGeometry y="360" width="420" height="40" as="geometry" />
        </mxCell>
        <mxCell id="wqeLGXHDsi9o7vKBSGzO-90" value="r9" style="shape=partialRectangle;html=1;whiteSpace=wrap;connectable=0;strokeColor=inherit;overflow=hidden;fillColor=none;top=0;left=0;bottom=0;right=0;pointerEvents=1;fontSize=12;" vertex="1" parent="wqeLGXHDsi9o7vKBSGzO-89">
          <mxGeometry width="60" height="40" as="geometry">
            <mxRectangle width="60" height="40" as="alternateBounds" />
          </mxGeometry>
        </mxCell>
        <mxCell id="wqeLGXHDsi9o7vKBSGzO-91" value="" style="shape=partialRectangle;html=1;whiteSpace=wrap;connectable=0;strokeColor=inherit;overflow=hidden;fillColor=none;top=0;left=0;bottom=0;right=0;pointerEvents=1;fontSize=12;" vertex="1" parent="wqeLGXHDsi9o7vKBSGzO-89">
          <mxGeometry x="60" width="60" height="40" as="geometry">
            <mxRectangle width="60" height="40" as="alternateBounds" />
          </mxGeometry>
        </mxCell>
        <mxCell id="wqeLGXHDsi9o7vKBSGzO-92" value="" style="shape=partialRectangle;html=1;whiteSpace=wrap;connectable=0;strokeColor=inherit;overflow=hidden;fillColor=none;top=0;left=0;bottom=0;right=0;pointerEvents=1;fontSize=12;" vertex="1" parent="wqeLGXHDsi9o7vKBSGzO-89">
          <mxGeometry x="120" width="60" height="40" as="geometry">
            <mxRectangle width="60" height="40" as="alternateBounds" />
          </mxGeometry>
        </mxCell>
        <mxCell id="wqeLGXHDsi9o7vKBSGzO-93" value="1" style="shape=partialRectangle;html=1;whiteSpace=wrap;connectable=0;strokeColor=inherit;overflow=hidden;fillColor=none;top=0;left=0;bottom=0;right=0;pointerEvents=1;fontSize=12;" vertex="1" parent="wqeLGXHDsi9o7vKBSGzO-89">
          <mxGeometry x="180" width="60" height="40" as="geometry">
            <mxRectangle width="60" height="40" as="alternateBounds" />
          </mxGeometry>
        </mxCell>
        <mxCell id="wqeLGXHDsi9o7vKBSGzO-94" value="" style="shape=partialRectangle;html=1;whiteSpace=wrap;connectable=0;strokeColor=inherit;overflow=hidden;fillColor=none;top=0;left=0;bottom=0;right=0;pointerEvents=1;fontSize=12;" vertex="1" parent="wqeLGXHDsi9o7vKBSGzO-89">
          <mxGeometry x="240" width="60" height="40" as="geometry">
            <mxRectangle width="60" height="40" as="alternateBounds" />
          </mxGeometry>
        </mxCell>
        <mxCell id="wqeLGXHDsi9o7vKBSGzO-95" value="" style="shape=partialRectangle;html=1;whiteSpace=wrap;connectable=0;strokeColor=inherit;overflow=hidden;fillColor=none;top=0;left=0;bottom=0;right=0;pointerEvents=1;fontSize=12;" vertex="1" parent="wqeLGXHDsi9o7vKBSGzO-89">
          <mxGeometry x="300" width="60" height="40" as="geometry">
            <mxRectangle width="60" height="40" as="alternateBounds" />
          </mxGeometry>
        </mxCell>
        <mxCell id="wqeLGXHDsi9o7vKBSGzO-96" value="" style="shape=partialRectangle;html=1;whiteSpace=wrap;connectable=0;strokeColor=inherit;overflow=hidden;fillColor=none;top=0;left=0;bottom=0;right=0;pointerEvents=1;fontSize=12;" vertex="1" parent="wqeLGXHDsi9o7vKBSGzO-89">
          <mxGeometry x="360" width="60" height="40" as="geometry">
            <mxRectangle width="60" height="40" as="alternateBounds" />
          </mxGeometry>
        </mxCell>
        <mxCell id="wqeLGXHDsi9o7vKBSGzO-97" value="" style="shape=tableRow;horizontal=0;startSize=0;swimlaneHead=0;swimlaneBody=0;strokeColor=inherit;top=0;left=0;bottom=0;right=0;collapsible=0;dropTarget=0;fillColor=none;points=[[0,0.5],[1,0.5]];portConstraint=eastwest;fontSize=12;" vertex="1" parent="wqeLGXHDsi9o7vKBSGzO-16">
          <mxGeometry y="400" width="420" height="40" as="geometry" />
        </mxCell>
        <mxCell id="wqeLGXHDsi9o7vKBSGzO-98" value="..." style="shape=partialRectangle;html=1;whiteSpace=wrap;connectable=0;strokeColor=inherit;overflow=hidden;fillColor=none;top=0;left=0;bottom=0;right=0;pointerEvents=1;fontSize=12;" vertex="1" parent="wqeLGXHDsi9o7vKBSGzO-97">
          <mxGeometry width="60" height="40" as="geometry">
            <mxRectangle width="60" height="40" as="alternateBounds" />
          </mxGeometry>
        </mxCell>
        <mxCell id="wqeLGXHDsi9o7vKBSGzO-99" value="" style="shape=partialRectangle;html=1;whiteSpace=wrap;connectable=0;strokeColor=inherit;overflow=hidden;fillColor=none;top=0;left=0;bottom=0;right=0;pointerEvents=1;fontSize=12;" vertex="1" parent="wqeLGXHDsi9o7vKBSGzO-97">
          <mxGeometry x="60" width="60" height="40" as="geometry">
            <mxRectangle width="60" height="40" as="alternateBounds" />
          </mxGeometry>
        </mxCell>
        <mxCell id="wqeLGXHDsi9o7vKBSGzO-100" value="" style="shape=partialRectangle;html=1;whiteSpace=wrap;connectable=0;strokeColor=inherit;overflow=hidden;fillColor=none;top=0;left=0;bottom=0;right=0;pointerEvents=1;fontSize=12;" vertex="1" parent="wqeLGXHDsi9o7vKBSGzO-97">
          <mxGeometry x="120" width="60" height="40" as="geometry">
            <mxRectangle width="60" height="40" as="alternateBounds" />
          </mxGeometry>
        </mxCell>
        <mxCell id="wqeLGXHDsi9o7vKBSGzO-101" value="" style="shape=partialRectangle;html=1;whiteSpace=wrap;connectable=0;strokeColor=inherit;overflow=hidden;fillColor=none;top=0;left=0;bottom=0;right=0;pointerEvents=1;fontSize=12;" vertex="1" parent="wqeLGXHDsi9o7vKBSGzO-97">
          <mxGeometry x="180" width="60" height="40" as="geometry">
            <mxRectangle width="60" height="40" as="alternateBounds" />
          </mxGeometry>
        </mxCell>
        <mxCell id="wqeLGXHDsi9o7vKBSGzO-102" value="" style="shape=partialRectangle;html=1;whiteSpace=wrap;connectable=0;strokeColor=inherit;overflow=hidden;fillColor=none;top=0;left=0;bottom=0;right=0;pointerEvents=1;fontSize=12;" vertex="1" parent="wqeLGXHDsi9o7vKBSGzO-97">
          <mxGeometry x="240" width="60" height="40" as="geometry">
            <mxRectangle width="60" height="40" as="alternateBounds" />
          </mxGeometry>
        </mxCell>
        <mxCell id="wqeLGXHDsi9o7vKBSGzO-103" value="" style="shape=partialRectangle;html=1;whiteSpace=wrap;connectable=0;strokeColor=inherit;overflow=hidden;fillColor=none;top=0;left=0;bottom=0;right=0;pointerEvents=1;fontSize=12;" vertex="1" parent="wqeLGXHDsi9o7vKBSGzO-97">
          <mxGeometry x="300" width="60" height="40" as="geometry">
            <mxRectangle width="60" height="40" as="alternateBounds" />
          </mxGeometry>
        </mxCell>
        <mxCell id="wqeLGXHDsi9o7vKBSGzO-104" value="" style="shape=partialRectangle;html=1;whiteSpace=wrap;connectable=0;strokeColor=inherit;overflow=hidden;fillColor=none;top=0;left=0;bottom=0;right=0;pointerEvents=1;fontSize=12;" vertex="1" parent="wqeLGXHDsi9o7vKBSGzO-97">
          <mxGeometry x="360" width="60" height="40" as="geometry">
            <mxRectangle width="60" height="40" as="alternateBounds" />
          </mxGeometry>
        </mxCell>
        <mxCell id="wqeLGXHDsi9o7vKBSGzO-108" value="实体区域&lt;div&gt;ShapeRegion&lt;/div&gt;" style="rounded=0;whiteSpace=wrap;html=1;" vertex="1" parent="1">
          <mxGeometry x="930" y="320" width="280" height="40" as="geometry" />
        </mxCell>
        <mxCell id="wqeLGXHDsi9o7vKBSGzO-109" value="最小区域&lt;div&gt;region&lt;/div&gt;" style="rounded=0;whiteSpace=wrap;html=1;" vertex="1" parent="1">
          <mxGeometry x="750" y="430" width="60" height="370" as="geometry" />
        </mxCell>
        <mxCell id="wqeLGXHDsi9o7vKBSGzO-112" value="[s2,s4] = [r1,r5]&lt;div&gt;[s2,s3,s4] = [r3]&lt;/div&gt;&lt;div&gt;[s4,s5] = [r6]&lt;/div&gt;" style="rounded=0;whiteSpace=wrap;html=1;" vertex="1" parent="1">
          <mxGeometry x="560" y="690" width="120" height="50" as="geometry" />
        </mxCell>
        <mxCell id="wqeLGXHDsi9o7vKBSGzO-119" style="edgeStyle=orthogonalEdgeStyle;rounded=0;orthogonalLoop=1;jettySize=auto;html=1;" edge="1" parent="1" source="wqeLGXHDsi9o7vKBSGzO-113" target="wqeLGXHDsi9o7vKBSGzO-116">
          <mxGeometry relative="1" as="geometry" />
        </mxCell>
        <mxCell id="wqeLGXHDsi9o7vKBSGzO-113" value="&lt;div&gt;同时合并最小区域&lt;/div&gt;&lt;div&gt;使用哈希表&lt;/div&gt;" style="rounded=0;whiteSpace=wrap;html=1;" vertex="1" parent="1">
          <mxGeometry x="354" y="690" width="120" height="50" as="geometry" />
        </mxCell>
        <mxCell id="wqeLGXHDsi9o7vKBSGzO-116" value="计算面积，更新UI" style="rounded=0;whiteSpace=wrap;html=1;" vertex="1" parent="1">
          <mxGeometry x="354" y="790" width="120" height="60" as="geometry" />
        </mxCell>
        <mxCell id="wqeLGXHDsi9o7vKBSGzO-121" value="&lt;div&gt;&lt;span style=&quot;background-color: initial;&quot;&gt;算法：判断区域是否包含其他区域&lt;/span&gt;&lt;br&gt;&lt;/div&gt;&lt;div&gt;&lt;span style=&quot;background-color: initial;&quot;&gt;输入：两个区域&lt;/span&gt;&lt;/div&gt;&lt;div&gt;&lt;span style=&quot;background-color: initial;&quot;&gt;输出：bool&lt;/span&gt;&lt;/div&gt;&lt;div&gt;&lt;span style=&quot;background-color: initial;&quot;&gt;&lt;br&gt;&lt;/span&gt;&lt;/div&gt;&lt;div&gt;实体数量N，最小区域数量M&lt;br&gt;复杂度：&lt;span style=&quot;background-color: initial;&quot;&gt;O(N*M)&lt;/span&gt;&lt;span style=&quot;background-color: initial;&quot;&gt;&lt;br&gt;&lt;/span&gt;&lt;/div&gt;" style="shape=note;whiteSpace=wrap;html=1;backgroundOutline=1;darkOpacity=0.05;size=13;" vertex="1" parent="1">
          <mxGeometry x="60" y="597.5" width="240" height="105" as="geometry" />
        </mxCell>
        <mxCell id="wqeLGXHDsi9o7vKBSGzO-122" value="&lt;div&gt;&lt;span style=&quot;background-color: initial;&quot;&gt;算法：分割Region&lt;/span&gt;&lt;br&gt;&lt;/div&gt;&lt;div&gt;&lt;span style=&quot;background-color: initial;&quot;&gt;输入：一个大Region&lt;/span&gt;&lt;/div&gt;&lt;div&gt;&lt;span style=&quot;background-color: initial;&quot;&gt;输出：若干个小Region&lt;/span&gt;&lt;/div&gt;" style="shape=note;whiteSpace=wrap;html=1;backgroundOutline=1;darkOpacity=0.05;size=13;" vertex="1" parent="1">
          <mxGeometry x="60" y="490" width="240" height="60" as="geometry" />
        </mxCell>
        <mxCell id="wqeLGXHDsi9o7vKBSGzO-123" value="&lt;div&gt;&lt;span style=&quot;background-color: initial;&quot;&gt;算法：合并Region&lt;/span&gt;&lt;br&gt;&lt;/div&gt;&lt;div&gt;&lt;span style=&quot;background-color: initial;&quot;&gt;输入：若干个小Region&lt;/span&gt;&lt;/div&gt;&lt;div&gt;&lt;span style=&quot;background-color: initial;&quot;&gt;输出：一个大Region&lt;/span&gt;&lt;/div&gt;" style="shape=note;whiteSpace=wrap;html=1;backgroundOutline=1;darkOpacity=0.05;size=13;" vertex="1" parent="1">
          <mxGeometry x="60" y="380" width="240" height="60" as="geometry" />
        </mxCell>
        <mxCell id="wqeLGXHDsi9o7vKBSGzO-125" value="计算每个组件与装配Shape的&lt;div&gt;剖切区域Region&lt;/div&gt;" style="rounded=0;whiteSpace=wrap;html=1;fillColor=#dae8fc;strokeColor=#6c8ebf;" vertex="1" parent="1">
          <mxGeometry x="510" y="280" width="180" height="60" as="geometry" />
        </mxCell>
        <mxCell id="wqeLGXHDsi9o7vKBSGzO-130" value="&lt;div&gt;&lt;span style=&quot;background-color: initial;&quot;&gt;算法：计算剖切区域Region&lt;br&gt;&lt;/span&gt;&lt;/div&gt;&lt;div&gt;输入：实体、组件&lt;/div&gt;&lt;div&gt;输出：Region&lt;/div&gt;" style="shape=note;whiteSpace=wrap;html=1;backgroundOutline=1;darkOpacity=0.05;size=13;" vertex="1" parent="1">
          <mxGeometry x="-40" y="280" width="170" height="60" as="geometry" />
        </mxCell>
        <mxCell id="wqeLGXHDsi9o7vKBSGzO-131" value="&lt;div&gt;理论可并行&lt;/div&gt;" style="shape=note;whiteSpace=wrap;html=1;backgroundOutline=1;darkOpacity=0.05;size=13;fillColor=#d5e8d4;strokeColor=#82b366;" vertex="1" parent="1">
          <mxGeometry x="-170" y="295" width="100" height="30" as="geometry" />
        </mxCell>
        <mxCell id="wqeLGXHDsi9o7vKBSGzO-132" value="&lt;div&gt;理论可并行&lt;/div&gt;" style="shape=note;whiteSpace=wrap;html=1;backgroundOutline=1;darkOpacity=0.05;size=13;fillColor=#d5e8d4;strokeColor=#82b366;" vertex="1" parent="1">
          <mxGeometry x="-80" y="600" width="100" height="30" as="geometry" />
        </mxCell>
        <mxCell id="wqeLGXHDsi9o7vKBSGzO-136" value="" style="shape=image;verticalLabelPosition=bottom;labelBackgroundColor=default;verticalAlign=top;aspect=fixed;imageAspect=0;image=data:image/png,iVBORw0KGgoAAAANSUhEUgAAAgMAAAEXCAYAAAAwdEdHAAAAAXNSR0IArs4c6QAAAARnQU1BAACxjwv8YQUAAAAJcEhZcwAADsMAAA7DAcdvqGQAAKdDSURBVHhe7J1leBXJEoYPEMUWWGxxh13c3d3d3d09uDvBJUhciJFgISFY3N0Nt8Xd892unhwuCwMEiJwk/eN9CMmRmZ6Zrq+rqqsU169fh0AgEAgEgqyLEAMCgUAgEGRxhBgQCAQCgSCLI8SAQCAQCARZHCEGBAKBQCDI4ggxIBAIBAJBFkdx7do1CAQCgUAgyLoIMSAQCAQCQRZHiAGBQCAQCLI4QgwIBAKBQJDFEWJAIBAIBIIsjhADAoFAIBBkcRRXr16FQCAQCASCrIsQAwKBQCAQZHGEGBAIBAKBIIsjxIBAIBAIBFkcIQYEAoFAIMjiCDEgEAgEAkEWR4gBgUAgEAiyOIorV65AIBAIBAJB1kWIAYFAIBAIsjhCDAgEAoFAkMURYkAgEAgEgiyOEAMCgUAgEGRxhBgQCAQCgSCLI8SAQCAQCARZHEVCQgIEAoFAIBBkXYQYEAgEAoEgiyPEgEAgEAgEWRwhBgQCgUAgyOIIMSAQCAQCQRZHiAGBQCAQCLI4ivj4eAgEAoFAIMi6CDEgEAgEAkEWR4gBgUAgEAiyOEIMCAQCgUCQxRFiQCAQCASCLI4QAwKBQCAQZHGEGBAIBAKBIIujiIuLg0AgEAgEgqyLEAMCgUAgEGRxhBgQCAQCgSCLI8SAQCAQCARZHCEGBAKBQCDI4ggxIBAIBAJBFkcRGxsLgUAgEGQ94q9cR1zCVfnfx1/56veCzIsQAwKBQJDVYCvBmMgwnD8yDW7Wmz79LjaWERONcwfGwevUPiYUrv33fYJMixADAoFAkOWIYyv/BFw0mg/TaQUR6nuRewLiE67C+/QBmE0vgsDLNvz/8u8XZDaEGBAIBIIsSFz8VYT5u+DYvPI4f2Q6DxfEREXg+IqGOLtriBACWQwhBgQCgSCLQrkBFw3nw2z6X4gKD4bXyd3cKxDqcwGxcfGy7xFkToQYEAgEgiwKhQoign1wbG45OO0fA/t1rXHuwFiRPJgFEWJAIBAIsjAUHrhsthQGo7LDauHfCPFxFmIgC6KIiYmBQCAQCLIosXEID/KGyaT8OHdwPGLjrrDfx379OkGmRogBgUAgyMqwVWFURAiOzauAi8aLEX/ttvzrBJkaIQYEAoEgK0NiIDwYx+aWx0WjhYi/ekv+dYJMjRADAoEgXaGs9bgEqoR37Quu87/JvUeQgiSJAfOZJXDBYK4QA1kUIQYEAkG6ERuXAM+Tu2G3piVObujwfzZ1ht3aVvA8sZu/RsSwU5noKAS62iHM3xVUkEj2NYJMjRADgixPbGwMrlyJRlyc/N8FqQet/P2cjeG0bzScD05kTMD5w1NhOb8izKcXZQbKnme2y71XkLJQESLhicm6CDEgyLJER0tCICoqGk5OV+DvH8dFQUxMNP+b3HsEKUt0NBtvqodPW9kYcVduItjbGRazS8P12Br+O/4amfcKBIKUQ0EPmkCQFSGjHxcXhSVL7qFMmbeoVvU1dHVvc3GQkBDF/y73PkHqQKIgMiIUJzZ0YLRHdFSk7OsEPwcPs9DYRkawMY2SfY1AIMSAIEtChj4+Pgpr195FtmzAP3VfoHy1V1BXT0Sd2q9gaXmNv+7KFTF5phWx8VT8ZhnMZxZHiPd5xDAjJvc6QXKJ4mMa6OMKV+O52DKyMgL8vHmBGfnXC7IyQgwIshxKIbB9+21oaiSidrNnOHwuCrZBoRg05R7+KvUG2RTAkCGPcerUFS4I4uLkP0uQMsTExiPQ7QTPaPc8vhE3bsXj+nVmzGLlXy/4PrRD4MqNe/A+q4+Dw9Wxqr0Cxw23IeHaTdnXCwRCDAiyHGTcDx++gfz5PqBs5dfYfzoaVn5hsPAOh01gGHbYxKLHiPtQMEFQovg7TBj/EJ6ecTx0IIxTKhATg6jICNitbgHHHV1x+nQcZs9+hNmz7sPbm/I4VHjcaZcDEzKUYyL79zSGdl1QeWF/z4swX9MbltP+wP4BCqwa0xAeHp5M1NKxyr9XkLURYkCQpSDDcvz4VeTN8xFFS7/FtmOxTACEciGgxDogDMd8w7DNIg41Gj2HumYiCv75AZs23UFYWAyuXhWiICWJjbuKS8YLYbOgLM4c90GdeoC6FpBDAyhT5gO2bLmD0FDa8aFaeRxUtjfY0wmOe0YixOdCkiiQf21aQKv+8LBQBHpdgtG04tAfqoDhKAVmtFLDxqVTcfPWXdn3CQSEEAOCLAElBV69Golz5+JRpvQ75Cv0DhsM43E8+L9CQMkxn3DuLbANCsPSvVdRs/Fz7imoX/8V9PVvcFFw5YpIcPtdKC/A/6IVLGYUgf2eRejVOQbFCsZj2gJvTJ3niQqVJA9Ny5YvcPToDe6doXGn6yn3eWlDFPcIhAf54MyOAbCYWwG+zmZc1Mi/PvWJiAjHOdvDMFvZEfsGKGAxXgHjMdmwqZcCEzsXR3xC+h2bIGOgiIqKYg+WQJC5iY+PhJtbLE8O1Mr1EasPJ/AcATkh8CXWgWGw9g/DuIW3UbTkW2ioJ6Jr12c4duwq4uIi2WpV/jsF34dc6+GhgbBf1wbGI9kqdmpFLGlfHVsG/A3jeeVhsaA0Dh3YhvHLHqFAkXc8v2PQwMewt6c8joh0G3cKa0Sw4z69pSfOmyzH2YOT4X5cF9GxCbKvT21oIg8J8seEpgos7sDGcXQ2mI3Pht2DFJjRWoEDuqv5bgK59woESoQYEGR6yGD7+8egSeMXfJW5jK307UKSJwSUHPOVwgcHz0Sj9+j7UNf8iLx5P2LE8Efw9IzlYoO+R+77Bd+CrUiiQhHseQrDe7ujZD5fzF90GrZslW3hYAsz+2M45uqC46ER0DsbhYGT70GRLREF8n/A+PEP4eEhjXtsbBqOe0wsIiPD4bBrMBz2jEZIWAQumq/BJWMd+denASQGQoP9Mb6ZAmOZIJjdToF9Q7JhZVcFetTVRnBICBNOVE9D/v0CASHEgCBTQ4YiJCQa3bs9hab2RyzYdg32oT8nBD7Hyj+Mewr22MegRdfHyJnnA88/WL36LjdO165FsMlZ/lgE/4XG6crVSCxc9IiLtM5Dn8HCL4YRi6Mn7GDhy372ifz/uDPWG8SjUbun0GBirHix91i//g58fWO5pyAtxp3CA86HpuLMrmEI9PdBSGgYPJxMcXbPCESEBrHXUEhK/r2pBYkByhVYNboOdDoqMLONAtNaK9C/ugJmR3cj4cpV2fcJBJ8jxIAg06IUAqNHP+TGZuScOzjBJs0vDfyvQJ4COyYqlh+4gtY9HvPPr1njNbZvv4XQUCpmJLwEP4Ji/6tX34FajkS06/0Ilr5hOOYTxgXAlknVYOkX9dW4kyig1yzYdh3VG0p5HE2bvMDWrbeSvATy35USxFAdBPOVOLVjIAJ83BAcFISgoEAEeLvCfn0HnkMQxQyz3HtTG8q9cLNaj4291TG+kQLjGjNR0L8OLl++hDgRIhAkAyEGBJkSiifTSnHG9PvIkT0RXYc8gJnHfw1LSkAJiJZMGExdeUvKJ9BIRIsWL2BldZWLETJQwlPwX2g8EhIioat7i+dfNG7/BMfYWFombe885huNLaNLYMH80bD0j/1qzCm583hIKPQvRmL2xhs8GVRTMxFt2zyHvd2VTyGblBv3aC4E3I5vx4nN3eHvdQnBwUwIBPpzQkLZ8axuhRCfi0wMpLU7PhrRsfHwsNsBhx394HHBHo62BpjYQh0Gmyfj2s27Mu8RCL5GiIEMAk1swqgkDxonMgaLFt3j1QXbslWniXsEMzb/NSopBXkJaOeBsWsEL1qUv/A7vmLt1+8JHBwSuOEjAyV3rFkNujbkEThw4CZy5/rIt27SdVEKAQvvMFgFX8OuCaUwpLoCizasx/HQ6/8ZbyU05pTHYe4ZjhGz7iBPvg/Q1krE2DEP4ewc/0kUyB3HzxATfwUeJ/fi5KZu8HVz4jF4pRAggpkwObN7JLwdjrDzi5X9jNSBdmNcgdfpg7Bf3w6h/h684iA1dgoNDkB4WAh/jfx7BYL/IsSAihMZSROolCQVHi5lxUdFRfLfy71eIAmBTZtucYPcqO1THD0fxd3LcgYlJVGuWHcdj0XPUfehlesD8v3xEXPn/gtXVymunZWvHZ13fHwETE2voUSJdyhe9g1MPZgQYGLq0xj6xeCg2RFsG5Ifs1spMGFoW/aaEPaar0MGSmjcqVbEFtN4tO31CIrswF9F32PevH95cieN+6+MeWRkJF91+zjq8zCA96UTXAgEBvghkIkAJcHBwbhovhYXjBYgOiZtXPJ8XqBjczKE/drWCHA9hSj6bnbM/DVJ4Qo6h8/fJxB8CwXdLALVJTY2Ah4eMejf/zHq13/JY9IREbTiURoWwefQxH/o0HXkYqvOqvVe4JBTFF89yhmR1IJWrPZhoVh96AoXIyRKKld+g3VrbzPjIRnErHjt6F4+eTIBxYu9QyHGmiMJn3kEksYu6DrWzemMDV0VWNdLgYE1FejTvRmOfUcMKKHqkfTvKr0rqNZA2jnyzz+vsW3bTf7dMTE/N+5RMfHwu2QD25VN4HHWBEHBoZIQ+JLAAHg5W+LUlh7cIMt9VkpD3+PvcgI2S+vA66w+39Yo9zqBILkIMaDCxMREIiAgGl06Swblz6LvoKaWyBOmbG2piUskEhJo1SP//qzGlSvMINgkIH/+Dyhe5g30zkbDJo2FwOeQcTLzDMdCXbYSLvsaOXIkonq11zh69DrCwshdnnWuHYlXJ6c4VKjwFpo5P0Bn1zVe0MmCrer/P2ZhsA69hR0r+mNzDwU29VFgVhsFutVUg97p8zjmE/HZa+UhLwHVjzDzjMCyfVdRtPQb3nyqCXtmjI2vciFNYkzuGD8nmgmBQLfTTAg0hovdXrb6T/IIyOIPf28X2CxvyFbktPVQ/jNTChICwd4XcJxEyok9aSZABJkbIQZUGBIDw4ZJ264GTPwXxi4RGDz1Hv5iExz9bsyYh7C3p5g0bauS/4ysAk3wp04loGTJdyhc/C12HY/5qsxwekDGibbEkTt8+My7KFP5Nb92ffs+ZoKOkt2kFavcOWUW6Py8vWPQqNFLaOX8iLmbb3xaxX+OpV80Dp+9hFVj62JbbwW29FNAp7MCg2srMKRnA9gEX/nqPd+CjzsTgkecozB4yj0U/EvK4yAPGz0z0rjLHy8lAYb4ucJubRucN1uN4CASAv5fCID/4u/rgZNbeiLI8xx/v9znpgRR0XEIC/LByc3d4Wq1iXsv5F4nEPwsQgyoKFevRmDx4nt8Ausy+AGf4JTu5x22sRg2/S7/G8VGZ8y4D0/PGL76yoqigCZ2R8d4/F3lDXLl/YDtlrGw/UaZ4fSCjBNdu/2nojFm/m2oa39EoYIfMHHCA1y4EMfPITNeOzqn6OgI9OjxFNlzJGLSspuSR0BmjKyDrmLT9lWY3liB7QMU2NZfgdU9FJjcVIGpQxuxvydfDCihfATyFGy1iEPPpOZTxYq9w+RJD+DlFfP1uEdF86qIJzd3wzn9+Xzr4I+EAMffF44Hp8Dz5H4ey/98DFIKSgaMCA/lNQ0umi5LEh1SXoBA8LsIMaBiUEyT3N3r19/mmfAtuz5mk1rYf2KrtOKhLW1rDiXwmvlq6om83v62bbfY5EXNeLKOKKDJnJLz6tV7iWzZgW3H4pgQYGPl9bVhUAUokZGSDLeYx6NRm6f82hUt/B5Ll96Dr290pvLykAigcxkxQvJujZ57h4s0EkZyY2PhEwFzdt22zmmFTV0U0O2rwIaeCsxuroDO1E6wCkyQf18yIE8E7frYaROLOs2f8eZTxYu/w7p1txEcHIV4JqSpSl9kZATO7h4Ox0MzEBQYICUJyhn/LwgKDMRFi3W4oD8H0XHXvhqL34V2KcRERcFx/1ic15/NhIDUb0PutQLBryDEgIpBQmDHjpvQYpNVvVbP+MqGJrGvJjg2ofKtVcy4zN10HRWqveITbr26L3l7Xik2Gi77HZkBOj8yNv7+0ejY8Rk0tT5i8rJbUrLgt4yNCqHcFrd4x1VUbyAVz6lW7TX27aMmSNJ9IHfeGQW6NlFREZgyRVqNk6v+u0IgCcvAKzi4bwl2z2+H/XPrYuf4ktgyv6Psa38W+m4uxthxLN9/BeX+kZ6ZunVeQU/vBgKDYnHRYDoc9o9nBt432UKACAoOhutJPZzZOYiJgauyY/IrRDBxEhMVh6AQX5juHgjHg5MQyfMShEdAkLIoIiIi2MQqUAViY8OZIb+GAgU+oGaj5zD1iOBGQ25i+xyaZA0uRmLK8psoWuoN9yj06fOYJ9PFxYXzSVnu+zIyUVHhCAqKRL9+UvW/EbPv8MmeV7CTGSNVhVaspu4RmLnuxifj1LnzE+jrX8uw145W19HR4Viw4C5PeO058v43u0N+DVvB+8fhWMhNWFw4DxPdETjm6gmLZOwm+BkosfTIuShM0LnFkwzVNICVY9fCbM1o+Pu4MePujwB/32QTGBgID0dTOOweirDgAGbEo2TH5meIJEEfFY+giBAMMm6GVdvbIjIkNEU+WyD4EiEGVASa+C0sruBPJgQqVH0JE7eIn9oSR6VcqdTu3pMx6DXqPjTYSjl/PmroQjHpGC40aIKW++6MBhlIahYzevQDbjypcRB5Az7fr56RIBFDpY0p2W36mhvchZ0790cMGPAY587F8msXE5Mxrh0JATreDRuk6oKdBz1gQkBy0cud+zehngQeATDe2BtmZ2ylPgVyr/sNSGjbBIVjv8MVzBqzHUPrT8RfhR6hb99HuHwpACHBPggO8pE1/l8SGBAAH9ezOLNnJALcTvPVu9z4JJfoiGiEsud5puM0tDKviRKLc2C//X5ciaMdEfLvEQh+ByEGVIC4uDDY2SWgfLm3yJPvPdbpx8tmWycHZUOXreZxaND6KdQ1ElGQCYxly+7AyysKV6+G8Qlb7jgyCiSc5syRkis7DnjIDEdYhhUCn0PGiZLddK1i0aan1ATpj7wfsHDhXVy+HIMrV8JU2lOgFAI7d97gQqBKrZc4cDr6p0Ttfwi8BuPNA2Fme1RqYCT3mt8igjdFsrDYAvMtnbHX2h2NOzxmz+A75GPjrrP4Ki5dZKv8cG8EBcqLgE8E+MHfzxsO+8bAy+EIz/KXG6PvER4RjtioWNyMvYld53ag+O5CqGxUCKVWZMOA1b2EEBCkKkIMpDO0WqfVH8WL8xZ4j8U7r7LJ8/cz4anEKwmKeVuuo36rZ9xwNmz4Ert3Uz6BNGl/eSwZgYSEcGxkq87sScmV5EH5snBNRkfKgA/DygNXeN1+unb//P0aq1ffRkgI7dlXzWtH9xSFuQoVeo9SFV5jp23s71V+DEiAyYE5MNVfKXkK5F7zOzCBYWa5H4ar2sHolB1MXANg7eeJ5fsiULORFH6qW+cZ1q2Nh7e3H/cUyAqBJIJCwnD2wGS42mxhYiBBdoy+RwJ7j+1lG8y1m4VShkVQyagwauzIj/KLimG/0QHecEjufQJBSiDEQDpCSVYeHtG8210OtpKaseam5BH4QZLVz0DuZ6PLkbyHf+ESb3lDl/btn8HcnIoWSe7njOIpoJXxvn3XoaWViDrNnsHIJYJ7QeTOOzNAcXZjJnaool7JClIuSCMm6AwNr6rctSMhQIWwChZ8jyLsPttkEsfu5d8UtWzVbma1H8Y7RsPCK4Wvs180zOxNYbiwJoysDdg4B8L4sg/HwtMLRxz9MHVFHPIXfgt1tUQ0bvQURkYRCAny4aKAEgy/EgPBYXA2Xo6LxkvYdaG4PiW6yo+XEkrciouO42GBs94O+GdPReQ/nBMVTIui1p6C+GtpHlQfVhXXr1xHeHjmCPMJVBMhBtIJEgIBAZFSdUE2yU9YcosLgR9lW/8KlE9AcVtKmOoz5j4PRVAnv6FDHsLBIY6vtlU9nyAhIQxHj17j7tvSlV/zxkPJSa7M6Ci9BAaXIjFq7h1ehZK8Ir16SgmiJAjS28tD30/erYpMsJB3a/XhBH6/yZ3PT+EbBfPzzrBY24wZ6CD51/wKTGSYnznOhEAtGFkwseH6fyGgxNTNG2bu3tB39sXgKde4KMiRHRjQ/x5Onw5GUKAPQkP+6ykIDKIdBYfgeGA8wkIoifD7YoCEgF+QHxw8z6D93lYodaAoihsXQkXzYqizvxDKbSwIrSHqOHvxLKKpxoDMZwgEKYUQA+kAJb8RI4ZLffaHz7oDm6DUL5JDQkNZgKVj/4c8ybBw4fdYsOAePD1pj3sYO75wtgKRP+70gI4lNjYM5hYJfF94haqveOOhzOwRkIOuHa2099rHoNvQB9DO/ZF3/Rs//j7On5fyCdL62imvDXm3Gjd+gZzsmJbuucrvMblz+BXovHVGT4WVh7fs338a32iYX7wE4zWd2Ep/s6wQ+BwTFx8c8/Zi4x6Adr3uQSvnB/z55ztMnXwTZx2CEBbqzYSAD/xJEAT4w8fVCSe29ESwnxvCf5D1Hx8TD4PT+lAfr0Dh1flQ2rwoylsUQ229Qqi0oyDyz86DDlPaIjAgkAsHuc8QCFIKBbmeBGkHTdixsaGYPl1KgOs79l8+yaeGR+BbUEIXsU4/4VNMunq1V1i9+hbCwshLoDQs6U9MTBhOnoxDmdJv8cef77HJJP4ntqllPigGTx6kDUYJaNdHKuZTga3Ily2jfAIqnEMJovJjmdJERYUhMDACHTuyeygbMH/rdV5QSe64fxXb4EjUqOmNAaOt2c+/ub2Q8g48g2G8sQ8Mj6yEsUsAM/i+XwkAOczcvLkwWL4nAnWaSfkE5cu/woqVCfD29kVIEBMFAT4ICAyC7aoWCHBzYM9QlOy4KaHwgMFZfWiNVEP+sX+gyKICqLrxT1TZXxhF1/yJHF0UOGSqhyvxV2XfLxCkJEIMpCE0SZOh1dG5wyeTroMf8Imd3Piyk1cqwr0EzKiaeYRzA/sXM7ZUDa9+vZdsxXSFHy+t+r48h7SEDJuTUwxq1HgFNY1ELN557fcS0jIRfPXtFc53HpSvysaHXbsa1alo0XUEB0vXLjUFHQmBkJBwXs8ie/ZEviWS8lPkjvVXoXvU4GII/q4SiOyK7Ri/+AhOhMfJvvaHUJ0CrxAYbx0Cw/1zJSHgkjwhoITEAOUTGF70xcJtUShW9hVvglSj+nMcPBAJXx8fREQG45TuAHidNfihGKCdA8fOW6DQxD/xl04+1JqQB6Un5EWR5X9Ca4wa+s7vhehIKTwg936BICURYiCNoImZjNu6dbegoZaINj0fJasiW2pD309eAsNLkRg5+w7+KiU1QRo06BEsLamhS9qtND+HjI2HRxQaNXrBm9vMWncjRXZZZCaU187YNQJjF95GyfLStevc6QlMTK7wLas0jnLj+ztERpIQiMCoUVKdh4lLbsE+hYUAYR8WiQ79XJBDEYy86gZo2OYQF0CWfj+5s4A8AkwImOwaD8PdU5kI8GfG/eeEwOeQKKB8AlNXH4yYeRWlK73k49C9232YmUfjgukSXDZbwosDyY3f/wnD1ZjrWH5iMYauy47Rq3Lhzyn5kH9cHhQeUADb9m9FfFyCzPsEgpRHiIE0IiY2FHv3XkeB/O9Rrd4LPpH/dCGWVISOh1y8u47H8iI+2XIkolDB9xgz5gFcXaO4YUmr0AF9T3BwBLp2eQIFW3VSYx8rf+kY5Y49q6O8dntPxGDo9LvQzv2BF5waOvQhLl6kBlYpJ+joc+j6zJ59jyfUdR38kBntEN5TQO7YfocT4RHoPDCAGdpYFMvvwP7di3otlrPzpUTbH7cz5iS9zmTfDBjtGMeMuTcTA35fGfhfhbYi7j4eiG6Db0NTm/IJ3mPcACfYbRqEmDgqGSw/jkR0RAxcwl2w4Uh9LN5WBIUX50XeMbmQe5QWavStiutXqDR1+nrnBFkHIQbSAPIIkOs9N1vhlqr4Gjusf3P/dSoihS3CeSXDhm2fIhszxqVKvuN73AMDqR0tGZbUm6CozDCtZkeOlJIrB0+9y8dKlYSTqkJeAhqrA2ei0b7vIx5aKciM04wZ1ARJuna/4ylQereWL7/Nt9s1avuEb1tNDZFGn2kdEII2PYPYfXANRfK5MPFhz35eCL2zPuw+jZZ9338gIeAbBZMjS2C4aQAz3iQEyCsgb9h/FfISmLh4Y5NxKBq2fghNzZdY1aslFi78F97eVBfiazEWFR4Nr0g/rDRshKUb8sHW3xiXvVwx+9AMFJ9SBCec7BH1Q8+CQJByCDGQysTEhMLCIgFFi7xHgSLvsN4wgRtc2clLRaCJ2IoZFjLAi3Sv4e86khu0LvuXqstJMelQnmwod86/SkREGJs4Q/mqk76v56j7sAlI/1BKhoKuXVKS4W77GNRo+Jy3Dq5U8Q22bbvBE/7i40Nlx/9HREeHYtOmm/za1Gj0nBnlKC5AZI/jNzkeHIW5my6w7zrDhMdNFMzrDW3Ns+z/e1C8zDzstnOB1ffCBVwIxMDUcC0MV7WH8bnzKeoR+BIeOnDzhrmHNxZti8Cy/t3wh0Y8KlZ4iwMHriEoiCpn0rgzQUZCIMoPq6w6YuFaLRh570J0ZDzPD6B+BDTWQggI0hoFuaEEqUNUVCjOnIlB+XJveCb8yoNXVF4IfAkdr/7FSB4XLlLyLbIxQ9Chw1OYmcYzoxLCbiL5c/8VSGAsW3YLOXKw7+j3iNcRyGiNh1QJEgVUoXH2hht8SyYZ8TZtnjHjdJXfmyS+5K6DHCQE9u+/yrczlv/nFfaciEk1IUAcD45gYsCTHbMrux9uokCeQPyR8zz7P3kH5qP7sN2wD/tWMmGSEDDbBsNlzWF06jiMXVPeI/AtzNy9YLh9DBbPN8bfdaU8Dgp5mZjEIzYqHN4xvthweihmrVfDbvdlCGHXIZwJa7lxFwjSCiEGUgmabL28IvmWPQ3tj1jIVtgpve0qraCwAR37gTNRGD77DtS0EnlMetiwB7h0KYqfKyE3DsmBBAV5UDZtusG73DXr9IR/Z1YoKpTa8HyCYKkJEiUZajNjTga9U8cncHSM5kb+R9eORJqVVRwKFHjPd53sPh6b6qJWEgM+zJB6Inv228iXKxIF87iw/5Mg2IXeoy2YGPhGvwIqM3zcAIZLGsHI1hjGbkGyRjvVcPGD0dGVsDaZj6OXrmHQ5HvQzPkRf/zxAf37v4SexT4s3KqNnS7TEMzEgRACAlVAiIFUgCbXQDZZtmr1DDmYcZvDVmZ2JAQyuLubCv1QHwDKXm/R9THP8ifDMm/eXbi6RjKjEfJTq01CKQR27bqGXNqJqN3smfQ96bDdMjNDXgK6dtQWm4oW5WaGKScTqVTv4uLFKC4KIiO/FgV0bc6fj0aFcm94mGvbsTheEVHuO1ISEgOz1lHyoB8TAzeRO+cVFMzrw372Yr8zYedgD/twmbwB/ziYOdjBaHlzGFkd/U+Z4TTDNQBGlnow2dwfVkEJ3IOy2y4GTTs+Rd4SV1G2jj2m61zGJdcoXEn4OQ+NQJBaCDGQwtCEGhgYjoEDpQS4yctv8pXZV5NWBoZW7ZRPQPv+6zR7zs+zZs2X2MBED43Bz3gJyAgZGCSg2F9v+dY4Uw+pfLLc9wp+H56Yx4TB2iMJ3AND165y5dfQ0bkNX18qk/3/a0c/X7gQjTp1XiIPEw/rDeL5dli5z01prP3DsdMmGKUqBLNjvAltzesomIfEgQ87lrNYvt8TNoFf7Cjwi4H5hYswWtcdRma7flhdMNUgMWBnAaP13WHu7g8L30j2vETAJOAiFukfQbuR3nzcyWu4efMNPu4kuj5/LgSCtEaIgRSEFD4xdux9toIBRs+7k+KFWFQJEjmGlyN55bliZaSGLo0avsAxtnpUup+/l1NAf7e1jUMRtuIsXPwtb90sQgNpA5W/NnWPgM6uqyhd8TXPBanGjNPBg9QEKZR7ecjbQ94tMlxrj1K/AXYvp8IWwm9hGxTOVtQRmLMxGpqat5E/pz96DA7DRuMQdiyR/93OSGWGXTxhvLEXjPTXpX1o4HMoTOBwBkab+sL87AneC0Hfyx07nPVwyMsGRkzwrjlyBRXYeNP2THpmDh++wnfp/OiZEQhSCyEGUgilEJg79y6fPClOaB+W+TPhyfVM8WMzjwiMnn+bu5LVciSie7cnOH06hk9ucp4CMjj097Jl30CLatrvpZr2QgikJeTh4dfOMwLT19zkCaKUs0H5BLa2sRg/7j7UNROxbP/VdBO15CGwCw3DasO7mNlvFubOtISFf/x/X0fVBd18YcyMr9HhpUlC4NeLCv02VNnwgjuMtgyFueUBGPoFY5fzYey5fAxmPiGw9IngHhbqujlsxl0UKvaOi7FevR7jxIlY9rxIz8eXz4xAkJoIMfCbhLKJKjyc4n6hfP81PdTkfjW4GJnp+ux/DxI9ZFgoe52aIFFMmpIMZ86UYtK00gxj4ojGi0Ipbm6RqF/vBS+QQ56F1E5IE3wbuna0lZR+7j36X94ZMWfOj2ja7Dm6DH7ADTIJhy/fl1ZQ2Ejv/HXoTFqB/q31mLGP/n/+jU8UzD0CYLJ9OIz2z0tfj8AnmBhw8YepmS6M7A5j92Uz7L1oAlPvYBzz/v92SBp3EsD7TkWj+zApjyMPE8YTJ97nyZ20W0f5zMjNPQJBSqIIZYpf8OvQwxoVFYItW67zZLo6TZ/hyPmoLCUEPocmbjr39YbxaNLhKfeSVKGY9OJbCA4mISBNcFQyNztbhU5ZeVOqsy/zWYK0hScZMqPfuL0UGsimeI9SVd5jyIx/ucijv6dX8SfLgFgsmGOKXrVWwswjRBIDvMxwKEz2TILRzglJOQLp6BH4DHPPcJi6eWCvwz7svmAAY+9AJgS+yHFQnht7XijBmHqEdOgn5RqVL/8GOjq34Mf+RvMLLTjk5h+BIKUQYuA3iY4OwaFDV6ChnojKNV/y6m+puf86IyCteEJ5THfZvqsozcSAhuZHVK70GuZmcRg58gFvrDNu0W0eh87soZQMAbsGlFg4dMZdqGkCI3IYwkOzMVooLkAr2xsUKg8s3HEdJu4R3IuT1tfMNiQSs3V8ML75SOy0ZPeMLzOsPlEw2T8Dhhv7wviiZ6oWFUo+3kwIhMCUiaYD9rrYazIbhhcdmWhhcwIvjSwvCAh6Zo6xf6nQF+UT0DNCSYZ6elcQwOYUmmskT4FAkPIIMfAb0MNpYZG0/7rMG77titoRyz3oWRHufmYrG5ugMExceguVarxEuQpvoK6RiKadnvDVUFYXTqoC3beTV9yCIjvQI5sd7msVxAdt9h9tBYzVh6K1wpmvWGs2e8WLZ5HRIvEg91mpAQmQRTtuYnm/Dpi9it1XgdEwObwYhrSF8Jwzd8vLG+e0hCoQhsDMLxIHzh7CHgsdGLhegMUlV5g7O8HCxeMzUSB/nvTM0LhSHsc4aj7Fnhcadyr0pa+fgJiYYO5dk5uPBILfQYiBX4QeSgeHaF5dMH8hqc++EALySJ6CMPSf+C808oBPbgVLfkSnQY+wxz4G1umw0hT8HyootWjHNWiya9My2wXc1CrOhEAOvNLW5pAgeKadGxvUF6GE4io08wLt+j6GrjUVH6JVuvznpiRWfuHYYXcdOgOHYtgIDxyz3ALDpU1hfOakiggBH2bAQ2DuGwE9RyPsMZuHo67O3HvBjb+7P8wvXoT5ubMwd/Vm5/RtQaCExDL1CBk28y60qFhU7o8YPvwBzyeg+UeEDgQpiRADvwDF8FxcIqTqglqJWMcUe0atLpjacO8AW+lMWnaLu59n5diOSK0q6KOwgqbiFXIVBkbOv8u3uZGXIKvmWqQXx4PDsOpQAnIWAqorgnBb66//CAElb7U18F5bDXFa5TE52x527V7y9/Qa95BXN6Rrl5rbQuk+MvGIwfheWzC65UyYbuwKY3vL9Ckq9BXkEQhmQiAah85ZYLfpbBx2dYA55TQoz4F7A9j4uPkwQeAIs/PnYOEZlPT3bwsD8hKQV+TA6Wh0Z0JAkQ34q+g7zJp1Fx4eVBeCCn0JT4Hg9xFi4CcIYQafXHQeHuFo0OAFNLU/Yvn+K1J1QZkHOaujdHnOXHcDilxAK8V5XNEqw1eaH7Wzw0WjGbop7KGueINSVd9j3pYbMLocIRIK0wha1W8xj0OBEokop4jBVa1S/Lp8KQSUvNbWwjttdSRqZ4OPZn0u6HIrniJfcWDa6pswvBTJt8yllpfHOjASowZaYNegIjh6ZBNMvKJUIk/AjAkBqnNw+Lwt9pjMwqHL9tJ2R5lzkAx/GK+JwL0El1xg4UGi4PueAhLUxIqDV1CdzT3kXStX9g02b74GX19qiBYsO2cJBMlFERISwoycIDmEhwfDmz3IPXs84rFVSvQRQuDb0Gpx8Y5ryFsoETWz+XOPwDu2ulQal7fMsJAwOKwxBjUVVF0OqNvqORdY0q4E+c8V/D5kWPbYxaBMtTeopIhAmGZVniPwufH/HuQpoGtnpdEPLRUXpXyCpi95Dw4zT+nz5b73d7AKiMDM+Zexa2hJbJs1CCaHF8L4ghuv+CdnpNMCE1d/Hgo4cuk0dhvPgN45Mx4qoJwKuXP4P8z4U1jh4mWYOzsyUeAq5RP8QBTQM0VetGmrbvKEZRr3Nm2e4tCheERHByEsLFh27hIIfoQQA8kkPDwEQUEhGD78PrJlAwZNuQf7UPYwp2FFtoyEDZu0NhjGI3eBRGZsIuGrWY+vKL80KrTapN9f1SqNtWo6yKt4AO18QMtez7D/VAyPFaeGYcnKkEE56BCNqo3fQEPxHCc0unHD/vKLa5Mc6Nrd0SqKveqTUUhxG5q5maBr+5J7HJSrWblj+BVoB8G6Q+HY0r8Sls3fCeNdo2C4uB6MzPeCF/rhoiAttxb6wpwZbwP3S9hjPAsHzujB3Icd5w8M+v+h1zE8ApkouAQzx9Mwd/P97G9fvl6CPC9UBIrCM1NW3ESuPz4gb94P6NXrEeztoxEZGYyICCEKBD+HEAPJIJQZ/dDQYEyceI+XGe4x4j4XAanlDs3oUGhgp00MipZPRHHFVVzWbMGNjZwxUULxaOK6VkmMU+gxw3IXipzAwCn3oXc2mocO0rPwTWaB4vr6FyJRv80L5GRCQF9jFB93uWuSXCh0QJ9xR7sIpmTfjWKK61BoAL3HPcD+09K1S5F8Ap8IGJ0PxPa+f0F39RIYXPKGvvkBGKzqCMMNfWF83EQKG6RFTwImPiy8ImDo4YG95otw8MQuLgTkjPjx4ISvfvdfkkSBuz/MyEtw3pn//P+/ffl6CRpTElvmnuHoPuw+cub5gFw5P2Ly5Hs4fz4yyVMgP6cJBF8ixMAPIBFArrd5825zl1y73o/YRBAhEt2+Aa069c5G4Z/6r1BAcR+OGu1lPQLf4o22JhcOLprNMT77QTbmH1Gi0ntMXn6L90Ggz5f7XsGP4Ul4bhFo2vkptBQvsV19Njfk5J2RuxY/C30OXbsAzVqYmUOXfccLFCn7AaPm3sFhpyieCCd3XMmGiQFTt1As79kcu5eOZivxAOg7u0Lf6SL0j6yGwepOMNwxHsanjqd6SWILzzAYeftjr9UK7LfbyqsLfmvL4JRlq2V/Lw/lE3jwJENqukReg299rhKem8Oei1V6V3g3UZqnqNDXihU34eNDRYuEl0DwY4QY+A7kEYiKCsL69dd5E556rZ7xMsPCbS0PjQvVW6/f9gXUFG9wXKPnL7mf6fWUyEbvtdTojwYKDyhyAP80fsM7JdJ3kfdBeGaSj3Ksug57xI3F0hyr+Vi/0db4avx/F9qNQNfulEZXNE/KJyhb4x1mb7jBPWpkuH7p2rH3GLnHYvKQvVg1bgw2m4fB8DwTAk6XoX/eE/on7aG/bz4MljWH0b5ZUj6BS4DkLZAx6L8E9wiEwcQ3GPvsNmGv9VoYe9Eq/rOdA1+wbO9h2d9/E9qF4BkCi8vuMHdygPlFV/Z7mnO+LwrIA0MtqpftvYLyVV/x0ujVq7/Enj1XeNiAcp5oTpOb6wQCIQa+Q2xsEA4cuAINjURUrfeCu1eVNdwF/4U8Jabu4Wje7SnUFW9hqjGEGwQ5Y5FcaKVJhuWx9h/YqTb9k/u5brtX2GoRx8MGwlPwY8jw0qp8yLR73DDPyLGDiwBKApQb95RAee2eaufFYfWxqKiIQHZ1oEaLN9hoHM9Fwa80pjL1isfqtcewrHsLbNK7AMMLTAg4XZIgL8E5xqkTMNg2CoY6DWFstpM3DTJ2C2bG/Dc9BVwIhDMhEIL9J3Sx13I5jDwpxv9tIUDYBMbK/v77kOFnUJIhEzxmjmdg4eLFfhcqiQXZ97BrzZ4JEgXmnuGYtf4Gr4FCC5l27Z7A2jqGCwLKKZCb7wRZGyEGZAgOljwCFuaxvLpg6UpvsP9UNC+OI/cAZnW4EGArks5DHiG74h0OqY39bSHwORQ6oFDDda0SWJRjPUorEng+Qd8J97HbLpZPfsJL8G2Os/GhOg8kpAZmN/s0pl+Oc2pA30NeHqpouFptKRMFUdzL03HAI2w1j+PX7qdyQfxiccj0GDZ1KYT9R4/AgBn6T2JAyTkXJgzcoG95FPrresBwYz8Yme9jBl2ZZChj6H+ACcPci6282bHuP7kHe48thaGH53cNc8rBRAEVLXI+x4TBOd6h8dPvv3qtBD0PUsguGn3H/ot8f75HTu2PGDfuX5w4EcXnNwqB0lwnNwcKsh6K4GC6IQSfExUVyFR0FEoUf4uCf73DHmZwqKSu3EOX1eETOZt4Bkz6lxub2Wpbfyk0kByU+QQ+mvUwPLshFx7Fyn/A6AV3oX9eyicQouC/0H07Z9N1qOcCOmc/hUfa+f+zvTOteJ107UI1q/FdI9kUb1Gg2EcMmPwvjpyTihYlp5KhpX80Dlk7YX2X0ti9aweOOHt+LQaUODOh4HgB+gYbYbC2Gww3DYDxyeNSguFPhg7MPcNg5huBgw6HsdtiIfTdL7P7/lu1BFKDJMPv6p0kCs4nqz4Bbc+lehKbTeLRppcUIipd6g2mTbsDf38KHQQxQyA/DwqyFkIMfEFkZCBOnYpElSqvoJXzI1t5xsBWeARkIcNLeQKj5t5FdjVadZpzY5Paq05aab7UzgkHzY6op/CEWo4PKPZ3IuZtu85DFeR+zvKigJ0/jQOVGVYrADRWuOKZdp50EQKfQ9eOvDxumk3RRXESGoo3KFwJmLLyFi9aROLle9fOyj+c71RZ3HcQFs7YjYNnvKF/TkYIKDlH+QQe0D/jCP2ja2CwsDYM98+FsdP5JFHw41LG5p6hMPeNhJ6jMa8ueMSNrc7TxCMgAyUTerHjcfGEmdMpXqfAwlOZvPhtYUD3AoUOtpjHo2r9F7xxGBUt2r3rChMFIWzeE6IgqyPEwGeQSnZ2DketWi+QM/dH3m+AuurJPVxZHaUQoCx/cvt2Upzm2wLlStmmBiQ4aDsb/Uv5BPUU3nzV07DDC6w3iOfbrrJyPgHlCKw9moD8xRJRVhGDp1p5+c4BubFMayifQLkd0VR9MBop3Pm1q9LgLXR2SQmi39p5QMWoDpy7hQ1zZmFGj2k4cNINBt8TA0p46MCViQIHnk9gsKINjI6uhLHzpaR8Ajkh4A0TFz9u+HmZYaoueNGO/T8tPQLfIkkUUH2Cc2eTmiD9IJ+Anln2XNCctmDbNZSq+JqPe6uWUtEiEgM0B8rNjYLMjxADSYSFBcHDIwxtWj/lffYnLb3FH54sv8KUg40JFRWazyYUam7TMJs7r1mfVkLgS8j9fEOrBPapT0ZxxTVetKjDgMfYntRFMqtdQ5rwd1rHomTFt0wIxOGiZqtUTRb8Heja3dUqgkMa4/C3IpSHmlr3fIrNplLjL7nQganvNRzaOhdrulXB4VNO0upfTgDIQa+l8IGVAfS3DIHh2m4wMtvFkwONXT/3EiQJAe9IHL10EnuNpuOQk9l3jW26QB4B9wCYn7/AOyNKTZBkXvcFJLao8NTQ6XeRK+8Hnk/Qt+8Dnk9A3lHhJch6CDHAICHg5x+CPn0ecqU8cvYdNgkJV/O3sGWT9OqjV6HxJ/gEHqNV8bs17dMCZXncUK1qGJntKN/amKsIMGjav7xSG01+WaE2BHlDqHJjmervkV9xDyc1uvFrk1K1BFID5bUjQTkv+2bkVjxGzoJAzzEPsY+dizW73z4vWmQVFIedW3dja6/C2G129ufEgBISBPSv2X7or+4Mww29YGxnliQKApkQ8OUegKMu57DHZCb0HI7C/Aeu+PQj6Zjcff+fZKgsWvSdGgW0PZegzqFdBj9AthyJ+LPAe0ydehfe3qF8XiTk5kxB5kOIgWCKlQV9KjPcZ9y/3GgIISAPrdR2n0xAsyZ30F1xHEGaNflELjfJpwdK9/MFjdboqDjDtzkWrgC+zYpqRGTm7pJkMI+ci0S1hq+QS/EMZhqDVV4IfA5dO/IuUenqXgobaCleIU8xYOyi2zhyPunaseeSGhat0PXD+n61MXeVOwycf0EMENxL4MZ+vgwDKlpE+QS7p8D4tD0s/BNg4OWJPRaLceD0Ppjx+UAVhcDnSMdH3gFzKm180QW8M+L3vBk0niQKmIjcaROLRu2e8lypIoXfYe3a6/DwoC6tgTLzpiCzoQgKCkJWJiwsALNn3eIegc6DHvImKxSXlH1wBGyFHY7uI8NRt9xV7M0xiSelpbdXQA4SBLTiNFUfgtYKZ359azV7wRPqSOxRzwO588uokHilBjaNOz5j2uw59qlPUsnrkhyUgo4KTvXIZsevXVUmcOZtuc49dtQZcZPFXWwZ0xoTRxnD8ILL14b+ZyFPwenTMNg9Dcbru0PfcAn2Wi3H/lN7YeodwsZY1YXA57BjpXyCSy4wP+fEmyCZUxGjH5wD7QyyD6N8guufmiA1bvwMe/bEM2MRiNDQQNk5VJA5yLJigDwC0dEBWLfuGnLkSETzzk/4ZPq5O1LwNeQZ2Gnth8p1XnNPClUHtNfo/p+EPrkJPj2gFTF5LW5rFYWNRh/8qbgDzVxA067PoWud8o100gu6JrSy6zyEStF+xCb1BXyFrUrX4lega/dA+0+c0eyEcopoqLNf1WrxGusNEmDscRUHZrfE6hG95GsN/AIGzm4wcQvC0TMW2LWhMXYvrwRD883MsLJ7xDeGjXVGEgQMChFQOWPqjOjkmFS0iJ3Ld0IHBNV+OHwuitemoCZIuXJ9QJs2T2BlFcUWT4EcuTlVkLHJsmKAhICu7hVoaXxEnWbPeUW0rBBTTgms/CO492T+9hsoWAZ8v39vhTVvSEQGKL0SCb8FrTTJsCRolcXMbNtRUHEP2fMBfcY+wO7jsXylmVG9QTycxe5dKsBEK7llOVZyj0BGFwJKlPkEN7WKY2H2DSisuA0FEwVdRrzEshHjsGdcdeyx84HBOSpLLG/kf8xF9v7LMLnsCwNXd+yxWY/dVqtw9KQpjNZ1h/GmvjCzN2PjHcmLHsldB9WFDD/DPQBmlGBIOQXuSUWLviMKuFBm86HR5UjeBClfwff8/ho9+h7OnQtDeLjwFGQ2sqQYiIwMgJ5eHPLne4+/a7+EsavwCPw0FGtkq9EDZ6K5Uf2jMJBL8QTT1XbxwjI0gatarJoMJB0X7XEfnM2Ui5hCZRIxev5tnk/wK+Vx0xtKjFy86xpyar7h54ScqjfuKYHy2lE+wcQc+9mPz1GiUAA2DqqP+duimLFzljHyyYEJAWcXXmHQ0NUTe2w3Ype5Do66XIKJqz9MPIJhbLINhqvbw2TvVKkssH88G/vvr65VEp9IXp/A3Oks331g4RHAfyf72iRIbFK7ZF3rWN4ESU0jEaVKvYGOzk24u1N9ggDZOVaQ8chyYiAiIhDGxjEo+Od7lK3yWso0Z0ZN7kEQ/BgSUWSQqFdAx0GPocgGVFBEYW0OHZ5PoGqhA0LZRfG8ZhteH4FWPFXqvWFG5To/HyKjJJDS2NNxa+Z4hzoKX15z4aFW/kwRJpCDvB7k6XHVbIaOag5Y3q0+qv4dgzHz47hxN7pAq/yf8RJchOEFDxi7+WKvnS52mc3D4cvnYEpCwMVHwp0JAmf22YeXwIhEwf5ZML/sIYUOVG2r4Y8gbwD1O6AmSNQZkRct+nE+AQl/c/bvsn1X8XedF/yZoSZImzdfRWAg5V5RkqH8nCvIGGQpMUBCgMoMlyv3Gtq5P2CdfgKPj8nd/IKfg4yShU8YX0FUa/oWWtofebEbE/UheKydjxtgVVqxKleaT7T/wAH1CVzAZNcA6rd/iXVHE3iiGk2AcueqUjDRQiGu5Qeuonyt91DP/gFVFUE4pjGAn5sqemh+F2UuSFzOsjgwoADaldsNtewfUaneCyzRDcRRR7aqv3hBxvB/jeF5Vxi7+mL/if3YZTAZh53tYeoW8H8hoITEAf3eyRFGe2fAaGVbmJpsgYWbfwb0FLBjVYoCyifgRYvcYeHFRMF3xA3lptBzTn1Ipq68iT+LvuNNkBrUf87nVUoypDlWbu4VqD5ZQgyQcqX41unTEVzN5i3wHjq7rmaMyT4DQatpyrsgtyKtVivUfMtXEF2ynYSDZqdPWeJyE3x6QaKAVptXtUpjYY4NKKq4BUUudsxDHkLXKpafi6p7Cej4KMZL2eDjFt9BuerSuPfNZskLDqniuKcIObWxufvfONqoMpZmW47yikgomE5o0eUOVuzxh+nlCzBw/raXwMDZlRl5Pxw8fRS79CdBz+mYZPS/FAKfw15v4h4E49PHYbi+B0w2D4CZzSHJiPpRkqH8NVJdImDuESgVLOJFi7wkofAdcUP3G82dZh7hvGhRiXJv+P02auQ92NpGIjw8ACEhgXzelZuPBaqJIjCQLlrmhhSrm1sw6tZ5Dg2tRMxYc1MSAio+yWdY2ErVhjKSnaIwev4d5C4M/KF4hOHZDOCnWUclE9yUngIvzYaYlX07m9zeoUiZDxg26y4ML0fyUFJGCB3Q1rADDtG8THTuokB+xQNMzb4bwZo1MlViIfFcKw9W1OqLvU1rIEy9HHxy/Y2Z6huhpniFPwp9QOeBN7Dbxh0ml5go+E/o4CIMuRDwx0FHM+w0nIoDZwwkQy8nAOQg0eAeCGNTXRht7APjrYNg5mAnCYKMFjpQegpcvWF23pk3QSKB8ENvB3seToSH8P4tHfo95CHC4sXeYtKkO7h8OYRv2w4Kkp+TBapHphcDpFB9fILQpYvUsWvswttcCGSEiT2jQ6tVKmiidzYKnYc+gVoeMk73sSD7Bl6Clprm0KpVbqJPL0gQ0L9RWpXRXuHADMt7XrRoOhOQJu7SikjV7x0ad/vQEOy0jUWrXs+Qg50WbatclX0ZL9tMIRtVLU/8M7zQzIOjxbtiVdumOJerAZ7lVuBubk3456yAPtlMoa54g4Il32PMvCjonXKB8QVKFiRceU6A3oUT2Gk0FftP68HIzZcZeULG8H8T9nr3IJhccIWR8RYeOuD5BOx7+K4DX1XoYfATkCCgbZQuHjA7bQNzapXMvQQyr/0M5TNBYdfqDV5ATT2Rd3zdtOkKn3sjIvz5gkxufhaoDplaDJAqDQkJwPBh/3IhMGT6XR7zEkIgbVEmGe49GcMbCannBMoronk9+ttaf6lcXJuOhRLwXmjngp7aONRTePH7p1aLV1i296okcsizJHOuqgSFbMijsUrvCqo3eYVs6kAVRSiMNIbz7pJK4ZNRea2ZE4F/lcTaAZXgVrw07ufUwJ3cWrifW42LAiOtPmiiuMSvXaXazzF9RRiOOrmxsfHD4Ytnsct4Nvad2MOEgJyh/wnIo0D5BBdcYLR3OoxWd4Dp4cXMqHrCIiDhq+ui2kRIeQTO55gwSH4+Fc2p9JzTczF382dFixo9w6FDsfDzC+LhA7l5WqAaZGoxQDffjBm3kY3dlL1G3+eTuBAC6QcZJzOPCF7h7O961DEtES2zsVWUxkA+uaual4Agg3lLqxi2q89GCcU1qOcGWvV8whvpUPe3jHA/SSu3MF7Br2ojqVNdr2y2sNPoycdcFcc9ObzV1ML1QvmwZlBFnC9fggnL3FwM3M6tzXmUOxuicxXBFq0pKKOI5U2QGrR5gqUHPLHfej722W9jQoAaEv2sR+BbsM/xDIXxSSsYbRsB4w09YWq+g62uozKIl4AJgUuuMHM++1NC4Etoi66xWwSmrbrJ8wmyZwN69nwIc/MoPieL0IFqkinFgNIjsGjRTX4jduz/KCnBSiQMpjdkPKnID+3rn7D0NnLy+gTP0UVxAsFa1fGerchpVa5KngIyliQK4rXKYWH29dBQvECeQkCP0Q/51lQytrQqkjtfVYHGnZIh9dm4L9S9jpzs+HMrnmKAwgxBWjX5OWa0JMN3WhqIzl0OK9o3x4FKrZCgVeg/YoC4l1sDj/MoEJqzNNbkWIi8OW6ifstDGDhFHzvs/GHh4QNzdxIEcsb9F3EL5BhbH4Xhpn4w3tQH5mds2XVIis3LXJ/0hwkBCg/QzgLPYP5/+dclD9p5wPNXTkejy+CH0ND+iHx/vMe4cXdx4UIIQkMpyVB4ClSJTCcGSAj4+wdCTy+WN9to1vkJd5VSpvWXN6wg/VDu56dtSn0nPETBkh954teCHBsRrvU3FwSqtmIlY0mx9jtaRdBXYYmcTMQUKA2+zeroealokap7Csg7Q9tpKWTTeehj5ClIdYoeY1mOVYjVqsBFT0bJJ6DjvJ6jHPbVag6dhj0QlasoDw98LgaIO4wXOdXwbwENODfNjUl1xiOvxgNo5AeGzriO/ScDcMzbC6auMob9l/GVQgfsZ0oyNFzRGsb7pier0E/awwy/GxNFTg4wp8ZGvykEPkcZOthuGYcGrZ9BU+sjCuR7Dx2d63BxCUFUlL/wFKgImU4MhIT449SpcAwY8BA16z6HnqPUvlbuRhWoAMx42rMVK2Ukt+rxhLtyyyjisUFtEc8nULXSxgQZoZfaOWGl0Q9tkpogVW/0ErM23GDGVjK4sueqQtDKjcIcGwwT0JLGPQdQTRGMLWpz8S9bYSsLM6ky5D16qlYATjVKYEXvWojLlw93cv3XM0Dcz6WNf//QhlsDbVxurokbBXOza9cT3bMf59euYs2XmLIsnouBFPcSEO6BMLnsDcO1XWBmcxgWvtGy1yRd8Ilg5+wvCQF3v1TzXNBijO63hbrXmCh4yse9fr3n0NVN4Iu30FB/Nn8LT0F6oggICEBmglxPDg7uKFUqkrumKlZ/hUW61O2MqVQeO5W/WQXpC60ezD0jsHz/FVRpIO1brqFgKzb1AZ8S+lRpWxwdE62i72kVxiH1sShG+QTaQO2Wr7DVIl4KHWSAHBXyZlDRIsoEr1Rfqk/QWOEGG/U+bLw1uDdElbcjvlfXgmvlYlg/pAwC/yz+lRj4lwmBh+xfz7pacGqljetFcuEpu3avcynYa/PBVLM/KigioMZEaOX6r7BsD1u1e3rB3MM7ZT0FHqEw1lsEE735qhMqoONgQoUXHWLnynsvyL0uBaFQFZV/n7riJgoXewtNzY9o2+YRDA2paJE/X8zJzeuC1CfTiQEqnuDr64NBQ8bhn7oGyPfnK+Rgq54GrZ5j27E4Lgpoopa7UQXpi/LakHGavekmilVMRA7Fe3RQnIGHVmOe3a9qK1Yp1p6DGZi8WJV9Kf5U3IV6HqD7yEfYYx8jhUOYKJA7X1WB53EwUWDiFoHJK26jaIVEZGfj3k9hwfs4vGZiQBU9NMRHzRxwKNgE63r/A+P8nXD3MzFAHoFH7F+fmjnh0E4L8SVy4gl7zyP6PeNpLg28yJWDvS43NqjPQRlFDN9x0azrI2wzD+FeAgsmCmSN+8/iFgBj68M8f4B3DpS5DmkLEwKewbwkMdUXsEjD0AXlbtFzrn8hEr1H30fe/FITpIED/4WdXTjCw/2EKEgHMp0YICIjIzFl8kT0GT8BC7afQouuocjzx0to5aROdf9ih3VshikikxWh66IUBSPm3EXJyjRZvMekHPvgq1VXJYvnSN6L7PDRrI9R2Y9CQ/Ea+YsDw2fewSGnSNgEqn7Zay4KAsOg5xCNvuPZJF0Y0FI8x5QcexGkVYN7QlQpsZMgkeKavQ1029XEyjIjcS+XlDPAPQKMoH9y4kx7LUSVzYnHOf8vBD7nMRMQL3Nl456CqWo7UEDxL3IXYsZp4g3stA7CMa+UyCfwhfH5izBc0lDayy8z/mkHCQEmds6f40mDaSkEPofuNwodUF+TDv0eQVP7I/4s8A7z59/AhYshiIjwk53fBalDphUDK5YvZzfYYKw+asyZsuI0ajWJ5wr0r5LvMHTaPRi6REquXLYilbtZBekLTRYnIkL4CrvbsIe81GwpxRWe7EZxbcmFrVrJbiRUyINxVrMjWigu8vutTNV3mLleqnpJngJVF6GU93A8JBRbzOLQbcQjKNhquYIiGutyLMYDrT9VSozR9b+lVhpm7Ytgc5u6uJtTkwuBR8zwh1VkQqAd+7fSt4XA55Cn4AkTExe0m6JXNit+7YpVeIuRc67B+LLP74cO3AJgtKIVzC9eSsdQAfteJkbMqI7AJRfp/7KvSzvouaCk1g2G8Wje5Qkf9+rVXmDtmqvw8fl/PoHcXC9IOTKlGAgLC8Phw4fRomMX6Ow5ilWHzbDWwAgrD5li9AIn/FX6PtTUP6BYmXdYpHsNZp4RGSITPKtCkwW5FreYxaN6szfQ0ExESUU8DqmNwwPtP/mKVZU8BXQsdExPtfLCRr03bxykofER/zR6gzVHrvBzyghJrTRB0zOx71QMqjV9wyvL0bkYqo/gzadIFKiCp+CduhbMmpXBwd6FcY3dD09ySp4Ah7ZaCK6SU9bwfwvyErzKlQ0Pc+XEca0uqKnwhWaOtyj5zzss3R3FWx3/sqfA1R9GO8bAzOpAOiYRhsGcSg5fuCjzt/SFthyTN3DW+hsoWuot1NQSUaf2cxw9Gs2TDMPCROggNcmUYiA4OBjOzs5o0rwl5m3bz8UACYFVh02w+qgJ/7n3GHcULclWm0yFNmr7DCsPSJM0GZ4vb1JB+kNGSdoWF4Y5m2/winp07VoqLuC0Zhe+GifjJGcs0gsSBZRTQMe1NocO92rQKrtd38fYah6bJHLkz1dVoHGnktIkmKesvIWySU2QOitO4ZRmV+6dobLScuefVnzUVMPe8t2g27sMLmi0xNVSGjjbVhsBVSl5MHlegS8hD8GzXOpMGCiwQ2MKqijC+I6LZl0fYtH+BBhe8IUpL1gkY/S/BYmBI8tgsn8mLPziZMc7tSERQGJANfIWvobuNwrhGlyKxJBpd9nCTbrfBgz4F5aWEYiM9GPzu/y8L/g9FP7+/kx1ZS7oxEJCQtCyZUtMX6+LVUfMuQD4HPIUzNtqg/Z9A6GV8zUjEW17P+Kd6miSFqED1YVWEGae4Ri38DYKl0mEluIFRmTT58luyloAckYjvaDVMwkCP826mJ1jG6+nULDER/SdcB/6F6WiRRnBK0Xx3YNno3h/jz/+oqJFT9i4GyBUq2q6emfoenvlqotj9SvBqWgdXGilAZ9aOfEgD1vp/4IQ+BLKJwjSroIF6utRRHEdS6vuw1K9WEkQ/IyHgIkBnkS4rgssAqTFR9qhrC7olJSzkP7hge9BzwPtPNh1PBYDJt5DDrVEFC36FmPH3oWTExUt8kNgoPz8L/g1MqUYICIiIjCgf38Mm7VQVgwQa44aY9VRE8zeeBwNWkchR44PyP3HRwyZeg9HnCnpS/Ury2VVeEYyW7EedIhG95EPoZYLyKt4iOnZdZGgVZYbX1UrWkQ7IUgY+GvVRkfFaWgqXiNvCWDSitswdY/IEMWxKMeGnotDjtHoNe4hcuQBCinuYE72LbipVZwn9KX9uGvxDoanq1aEXcsi8K+jjQd5f80j8C1o18HLXNnhoNUaVbMHomWPhzA47wezn/EOuPrB2OEkjNd0ZAY5JO3yBihB0MVT6jfgyb5XxYXA59AzQffc/tPRaN75CbJlB0oUf4OlS6/Cw4PyCUgU+MnaAMHPkWnFAHkGdHR00HHAMKz+hhjgHDblCYbkKZi49AwqVL2F7EwUFCz6gdfWprK5tBIV7Y5VExJrZJy2mMejcafnYDaBGaeb2KcxiVcKVLUMeDoW8l6QMLBT74G2CidkU3xExbpvsXT3VZh7Zox8AmVlucPOUajT6hXUtKhYVCwOakzgtRfSetxfa2njQtXicGyVC/cKa+GtOjPg7PdPUkgQkBiIy1kMjRRu0PoDWLIzCse8fjZM4AcT5/Mw2jIY5o6n0iZvgISAqzfMzznBwiMoHRMXfwM295IgsPILx+Id1/B3HakJUt06z7BrVxxcXILYfC8Ewe+SacUA1RswNDRE3aYtmLG3kBcCX0CiYIWeKfqNd0PJclKnw5qNX/Ab8Bi7KYWXQHUhT4FdSCiW7buKpp2fSfkE2S7wZLen2nm4AZYzIukJraLJg7FbfRqqKMKRjRlUqsK43iCB32sZoYQ25XGQV2P+1uuo1kjK42ifzRFm6oO5hyAtQzbPmNG+UVIDseXVcaOEBp7n1sYbJhKe/aYgeJ5LDQlMCHTIfhoKTWDBtmhYenvJG/zv4guTSx4w2j0Fpsf2wsI/lfMGmOGnNsTmTmeZEAjMmELgC0goUz7BpKW3UKyMVJxsx4442NuHy9oBQfLJtGKAcHdzQ8Wq1ZItBghKMiQvwQJda/QY4YWcuV9CO2cimnZ4yrPZaYIm97TcjSpIf0gQmHmE82S3fCXB9/uTS57yCcgwkQFWNU8BCQJqgrQo+zpkV7xF7j+BDoOe4JBTdNKKSLXvN4rv0lZE8qJNW30LeYtTv4OX6MTG3V+zDhdiRGqPO3kHiKd5NXG9lAaiK6vjXmENvGRi4BX9/hdEwdNc6ridMz965zgGRXZg9vpYWPt5yhj6ZOLmD6P9c6QWx6mZN0CGP6nMsAX7zowUGvgRNAdTPoGeYzTGLLiNOg2fo3OXJ2wBKG8HBMkjU4sBP19ftG7XHrM27Phm3sC3IC/BGn1jLNxphQZtopgoeIXsOYBeox7wOvoUOhBdEFUTmiyo9DR16Osz/gHyF0tkK4h3mJldF0GaNbmLXrU8BVLogIjQ+hsDFObIr3gAzQLAxKW3cfR8lNQuWdXzCZhoIfFizn7uPe4hL1qkrXiOOdm3IkarYprlcShFwZM/NBFXXh2xFdTw4E8puZH/nhn5x18YfTme5NLAg1y5MCLHEb6TYMKSBNj6e8gb+eTiEQIjow0w2TsNFr4xsuP4+zDD70FlhpkQ4NUFM48QUEIC1D4sBJOW3eLegaJFz8Lfz0vWDgiSR+YWA35+GDFqFAZPn8cMu6Ws0f8RSk/BeJ2zqNbgCs8nKFryHc9k179ATZBUv7JcVkW5YtW1jkW34Q+QIxdQUHEHq9SW4YpWGR7XJkP8pTFJT5Q1Cs5qdESHbGf5RPd3vdeYue4G7xFPxlbuXFUKNu6U+LXZNB5t+zzmrnUKg2xSW8CTDEkUyJ17akDGn7wDsRXVcbW0Oh7n18IbTSmf4HvhA9paSLUGdNRXsmuQiM6D70H/PO0e+M3yxLy18REY7xwHczcfNlYpXf2PGX7PYN6K2Pyyh/R/2ddlbKhSJtUj0M6ViLJVrqB2o3awPGbOG+7I2QLBj1GQwcys0I1BSYRt+gzEeiNrWWOfXEgQLD9ohhGzL6BM5Tt8kq5YjU3Sa2/yQhkUOsgI28OyIpToRgV0NpvGoXkPKZ+AmiAdVh+LZ9p5eOhAlYoWEeS9uK9VEEc0xqC0Ig7ZNYBazV9hrb6UT0CiQNXvN4rv0rOxSi8BlepJ+8WrKYJgoj6Ue0GoPkFajDsJghfMwN8pqonoSuq4XjIpn4CJgufs718KASo8RDUGNmnM5mGm5t0ecCHwUzsHvoVrAEzOnobxtmEwd3ZM+SRCr1Deb8BcRaoLpgZ0X+nsuoZceT6yhdldTFlpiI79+2H1qtU8cVzOFgh+TKYWA5REqHfwAGo1bYX1xjayRv5nWHXEhIcOlh8wR89RHshX4DmyZQNqN3mOdQbxfHLOCJngWRUSBPTv/O3XUeqfj8ih+ICWivM4rdGFGYXcKtkEiQwmVVlcmGMD/lLc4KtsyifYdyqaiwISOl+epypBoQ2lKFigex0l2LirZ3uHDgoHnsdBraDTwlOgDB28YIb+GhMDUZXVmDhgooD9/zUTBZRPoAwdvMiVHQc1RyE7uz/qtnyCw45+vBSxrHH/aXz5rgKjjX1hfsoyZUMFXknVBS9elv97JoDupVWHElCgyEfk+eMJRi8wx+Jde9FvwnQMHzaMbymXswWCH5PpxYCNtTWateuEJXv1P1Ui/F2UoYOFO6x5E6R8fz7j+QTdhz3gTZDINS28BKoJXRdrNqEYuURg+Oy7+Ks8NUFKxMjsUtEictGrmpdAGTqI1qqEudm3fmqkM3jqPRw4HS2JHBW/32jcSbxQ+GDwtH950SVNxQuMz3EQvpr10tQ7Qx6Bx/k0EV9OHbHl1fBvIc1PYuFNzuyw0eyOnIpnqNrgOfbZB/KWxvKG/RfxDIfhliEws9ZLOTFAeQEXLzEhQGWGSSBmPq8ACV8KPZUs9wZ58z/FsJk2WLRjNxbqHsTIeUvRvn0HhIaGytoCwY/J1GKAKhGec3JCj74DMHX1Zqz5iV0FyYE8BesMDTF11SnUbxXNjMpHFC3xDgMm3sdhJ8onEJUMVRUyTvZhVOEsBsNn3UWOP8BW3jf5CvyaVim+WlU1UUC7IUgUnNdsg86K09ztXqrKO75zgrb3ZYRKhnR89FxsPxaHToMfQcFOqbQiAYtzrONhEQofpFXogLj/pyQKiLf5FHDXaIqiilso/fdr7LZNQSHg6gtjNz+OiXsIjA/pwOTIMjYmKWC0aQvhJVeYnz/P/p85hQCFxahhWclyb6GV8yX6jT+FxTt3Y/62fVigewDjl6xB+05dcIGNAc37cvZA8H0ytRigpAhvby+MHDUaQ2YuZKv5X0si/BFr9I2w8rAJxi5yROlKd5BD7SOKlX6HGWtuwNg1ktfTV/VJOqtCBpSSQKlDX8OOL6HGFuHlFFHYqT6DF8+h0IGqiQISKk+0/4CtRi/eOIgaCFWq/w7L9l3hZZrpfpM7V1WCh9N8JFFQs+VraGgnorjiCkzVB+ORdv40G3cSBLT18HERBTwqFcWoQqtRtVQc9tjFwioghBtxWeOeDIzZe408AmDoFcz/b3n2Ak5a2OCYsxuMbI7CePsIqRKhzPgkG59ImF92l6oLelEYLBN6BJgQ0DsbxXO0aFdQjxGOWLxrFxZs3yeJge37MX3tNrTt2gNGbHFGvWnk7IHg+2R6MUAJJVMnT0b3kRPZKv73kgi/B2+CdERiwCQXlEgqWlS3+XOe7EIeAnJPy93sgvSHiufQ6mPB9uuoUo8mHfBqcxYaA3lcW9XyCchQ0iqaGjRtUFvIREEIP+aWPZ5io0k8j9EfY8ZW7lxVBWXo4HhwGBbtvIaazaWiRU0VLjih2Z2fG4UP5M4/JaHviNKsghbZLqBjZVtYrp6NU4Y7YM2M9jGfaJh6BMGUqge6JC9vwMjdHwbekpCwt7TDRbaCDZs2CY+b1kb80AEwZa8xPn8JRitaSsWAZMYmeTDDfzmpzDAXFZlPCFA7bUOXCDRo/QzZsn9A54EXuBAgEfAJJgbmb9uP1j36YNPGDbxrrZw9EHwfha+vLzIz4eHhWLN6FToPGi7VGkihvIHvQaGDRTut0GmgP/Lke4EcakCLLk94NjutQkXoQHWh+hH6FyJ5KeoSVT4gm+I9+mc7BlfNZirpJSAodBClVRnb1Gcjv+Jf/FHoI7ZaxPHQQUbxSJGngMTYqLl3UKhUIjQVLzEkuwm8NRtwY51alQzps+O0ynMhoJEfWHv4Gk6cOwO7Patgv3UejhsfgvUlX5j7RMDMk1b4X3sKyANA7n9DZtjp/yfNrOCzYhmuDOjFBUBiafbBf6rhYcv6sD7lyMWCiXsQDJc14e79X6sDEAFzVx+Yn6Pqghm0zPAPUIrFTgMfIVu2RLTu6fa1EEhCZ9dhtOk9CAvmzeNiQM4WCL5PphcD5DI6cvgQOvTqh8V7jqZYEuGPIA/BWn0jzFxvjyYdwpkgeIc8f3xEn9EPeOc364BQfqPLPQSC9IWXNg4NxVEmCsYtuQO1fEA+xQOMzabHjS4ZEFVrgkReAhIF1BlxqMIIZYvEYJddDC/AJHeOqgiJZBIE1Hyq97gHyM50DiVLTsm2m+dx0DkScuf/K9Bn3dUqip7ZjvPqgpOW3+LX3dwnCpbuwbC1toL99sWw2z4fxy2P8d+ZMyPMewwkCQGzCx6wcLqMM0bmCJ02GfdbN8Kr6mWRWKYAUFgTKJYLKJ4HH8oVgp/OIraKd4PpJS8YeTHRuWMkTO0MYeEbJTse30YqM2zmeBoW7n78//Kvy7hwTyq7F/pPlDysDdv4YdGOPViwfa+sGFi86xB6jJyAsePGwcfHh6905eyB4NtkejFAoQInR0e069wFczbvYWLg5yoR/i68kiFjyqpT+KfuVSYKPqBw8fe8aNGRc1JlOdEESTVRZr/rWsWhebfn0P6Dihbdxib1BbihVYIbX1UqbUzH46DRCUUV11G5ziueP5DhclVoNciMAHkKqH1tMzbuWnlJFNzDHrUpuK31Fz/P3/XQ0PsfahfAoBymyMFsNiWRkgj8NF600mZG2tItCHbmRrDbOhd2u1bA5sRJWLJxNfMKg4lHIByY4H/cpBY3+CjBDrR4bunnkuxmKcVU5GeQh+BlrYo8VOC2aQtOrp8Cyz3zYBpyDaaBcTD3TU4BIvYad39JCFDRoswoBJI8AiPYNSEhUL1+OOZuPfBNIUAs2nEQI+bqoGeffjyJkOZ9OXsg+DaZXgwQtMWwdevWmLZ22/c7GKYiJAqoXfLAKS4o9/dtfpNXq/eSV9GyZJMfxazlHgxB+kPXhhINVxy4gobtnn+Ka+9Tn8zzCd6nQVz7R5C3gkIZpRVXULXBKxhejszwnifyatCOj8W7rqF28xd83JsrLsNMYxAea+fj5yw3Fj+ChABdt6k5dvMyw73H3OfdIr9ZXtw3GtbnPXFcfzfsN82E3cGNsHG4CAu/GFi4+iNw0UK8Zyt/lGAi4AsB8BUlmWAgb0FRdiz/FMPN1lURNncOXPYehJ2TO0yC4mHmHw1zXpnwS0PP/p9UXZBaEmdWIUAegcnLb0IrZyLK/30FszbofVcIEJREOHO9Lhq3agN7OztecE7OFgi+TZYQAxRDGtC/P0bNX/bTPQpSlMNJ+QS7LHkTpD/+fAoNzUQ0aPWc75+lyZtWRcJToJqQF8fINZJ3RixaCbxoUXPFRZzTbMvDBuR2Tg9PwQft7AjQrI1KinDkKw6eL8A9TjLnkBGh3REkbqavuYX8pcgx8BLtFWdxWbPFTzefotfR6zeoLWLi4iPa9XvMcyt+JMZp1X6Mrcqtz5yD/Z41sNsyC3b6+2Dp4s/+FgXftevxoXxhyTMgJwLkIE/CX+z1TBi8q1wcT5vUwvVBfeDDPuvkSWcc86SQRQTMAmJg5kcCgR2HsxPML7uxY8p8QoAg0b1g2zVo5/qI0pWuY+rqo1i4Y4+sAPgSnT1H8HfdBrAwNxNi4BfIEmKA8gaWLl2C7sPHpHmYQA7KJ6BKhtQZsWXXEN4EKQdboXTs/4gXLSIXqfAUqCa0WqXQAa0iJy6/zY2vmuINRmU7ggCt2p9EgZwhSg3IsEVqVUF9hRc0mX1ZefCKJChljj0jo9ztYewagV7jHqJACWo+9QGTs+35lMeRnHGnEAOVoc6ueI8mnZ/BzCOCiXD57/wKCh2wFfsxzzDY2p+C3a7lsN86F7YWJjjmFgT3nfvw9u+SbOX/E4JACQkD8hgkvfdDhSJ42LYpwubMxnlDc5xwuAQL5/Mw9vJj4iA2yXMgc4wZGJr3lu29ipx5gMLF7mHiUmMsSqolkBx0dh9B4w5dsGXLZl5rQM4WCL5NlhADdGMYshV5k3Yd0y1MIIeykuHkFadRp2ksX6kU/Os9hk6/iyPOSfkEMg+NQAVgqzSavHbbxTKR+RCabC4vSkWL1DYiWrNimuQT0Kr4ulYJtMh+mcfVp6+5yVdWssebSSA3MrWppnHvM/YBtMiOKq5ho/pCJGiV5Ts+vjXudE3sNHoil+IJ6rZ6wfvi/7Jw8mXvdQuG7TET2G9fALsdi2F9wh5uuw/yvID/ewj+kM0f+CH0Hgo7/JWTf9bjprUQN6wv9xo4mdnA0iMYJsEJ3GOQGXYSUEL1uqMJKFz8Hf4o8BQj51jy6oJyRv9bLNqphx4jx2PCxEkigfAXUFDmZVbAzc0NFar8jenrdXklQlUSBSQIKIQwap4zKlW/wWOj5f95jSkrbvGVKIUPMlwiWBaB4ptkUDYaxaNxZymuXUURBl21GdwA0Wo1NbYjkhB4pJ0P3bLZ834FYxfc5uIkq9wn9EzYh4di9aEE3sCJ5+AogqCnNg5PtfNyT8Hn405CwEmzPf5U3EGl2m/5TpHfFk48yTAa1hc8+BZE+82zYKu3Ea7btuNVrUo8kfB9xb/wumrpJOPOFJsywZB+lhMB34I8BkW0+Pte1qmMfzu2RPSkCbh0UB/Wl31h7hfF4eEESkTMQAKB2o1TW3iq3poz9wsMnmb7zS2E32PB9gMYt2gl2rTvAF9vb1k7IPg2WUYMUHbpihUrULdBI/QeOwULdhzknQzTaqvhj1B6CZYdMEf/ia4oWPQxsmcH/qnzirt+6aGhyf7zh0igGpAB5lX/vMKxySQeZWu9h3qOD2ig8MAZjc7MOOXBx++sWH8W5bbGsdkPQZENGDrjLmzYyiorCkYy6GYe4Ziz+QaK//0Batneo6niEi5qtuJjRCKAcNFsjlKKeBSt+PH3PAJyUOiAYX3uMuz0tsJ2x3xcXjEbz2tXRGL5Ijhtcgxn9Y0QPGsa7rVvhpc1K+B9hSLSqr8oo8RPeA/odSQoirJzoy2L5Qsz4VEB1wf2htfmbThldxY2F324KODJiCruOaDrd/hcFCpUfY0c6m/Qb/xJ6OzeKWvsk0vFv/+Bu7u7rB0QfJssIwYI2lXg7OyMkSNHoFGLVugzfhqW7jNItTLFvwKJAipvvGCHNdr2DkSBwk95E6T2fR5JSYZsEstIe8ezEmSMaZVjeDkC4xbfQfGK75Fd8QYDs5vjgmZr7iX43eI5JCjoc5aprearYXKV2wZm7XASjTt5aEgUjJx7FyUrv+NjMyn7Pp5k6KtVF/8owlC6ylsccqQaH6kkqinJkAlC25MOsD24HhfmD8WTWqUQsnARTALjYOIVAiP3ANgePw2XLVsRMWkcbnVqhufV/mIr/zxs5U91CSi8kExhQHzyOEghBco1uNOtPUIWMEGy/zBPRDTzjYIpEwbkOZA97nSCvDvUMIyqC2bP/p6XGdbZ/fMegc+hegM16jfC6VOnuOtbzg4I5MlSYoCgWBKVKDY0MMCAgQNRv3lrjJijg9VHLdJ3p8EXkChYZ2TIixY16xzGJjcpn6Dr0AdcSXOXsBAFKgkZJ8r32HMiBv0m3IeCLf4KKe5y43RVq/RvVDLU4n0JdqjNgIbiFToOfMQNW1b0CMhB42AfFsLGPRpjFtyBgtnVQdnN0DSbC3IVAtbpJ/CtinLvTUlod4GVezCsTtjjwsqZiO/eGPYWlrBkQsHcOwymTBQYegZC3zcC5vY2OLWoJ9w2rETEzJm436EFPpYtKCUT8nBCUkjhZzwHxdgNV1iTCYPCeNyiHq4P7IPAZctw9pg9Pza+dZHCCky80G4FuXNIbSgBl5I32/V5zIVbm16uWPyTOQJfQlUIe42ejC7d2Xi6ucnO/4Jvk+XEgBLaeuLt5YXDh/TQtn0HtO7RF3O37ceao8c4cgY6PaDQAQmDScvPoEK1m0xBf8SfRT5g0tJbPLOajME390cL0hXadUCCbf+paLTs/Qwa5N1V3ICuGpv0tQryuHZyPQXkESAhcERjNNQUr9Gi5zPp2otdJ19B40KiYL1hAqpVesBDKVrMPk7QuQ2Di1LjsFT3rpGR9YnGMbcAnDmiB4dVk2C3ezn3GhzzCuNG2NQ9AMaXPaG/YziMHY/Dwi+Wu/hP2J2Cx8rFSBgxBM8aVMe7SsWkksYUUqDQQnLqGRAkIuj1lGvA3v/2n1JMHNRH5IxpOH/UBMedPXgiomlALEwDY7lQkD2XFIbGnvpmdB/+ANnYtWnU1g8Ldfdi/g9qCXyPxUwI9J84Hc1atuJ1BihpXG7eF3ybLCsGCHIj8S0o7OeVK1eiWYtWbLU1HDM37sR6Y5s06WOQHFYdNuVVDFfqmWLQlMu8MyKp6ap1X2LRjqtsUpEMj9yDJ0hfeOiAGWzqebDFPA7VGr/mxqm6IhBGGsPxWCsfN/JfGv/PISFAtQSsNfvy3gP/NH7LDFrWzBFIDmRsDC9FonG7p8ih8QEtunmhTGWpml25v99g7ubrvLYAjaHc+1MUZvTJyNqcc8Pxo7t5kiHlFVg7XuR1C0z9Ynj3QjOL3bDwj4O5ZyBMnR1h5hkgufXZNabdAwHLV+DaoL541KIBM+olpZwBMvLkPUhOWOHzcAInN17VrsgFB+UaOJlaw/a8J6+EmPxqiD8P92aycxoy7R6/HrWbhbDrcQALSAzIGPnkQLsIBk+fh0bNmsPK0pJvJZeb7wXfR+Ht7Q2BNw8dnD17FtOnTUXjFq3RZdgYLDtgyHceyBno9II8BYt3W6LHSC/kK/gM6hqkrJ9irX4CDx2IfALVheLaZKSoCVK56m95E6Su2U7CWaMNFwTf8hKQB+GcZju+ha5ctTfYfTxj9RxIS0ggkaesU/9HzNgkollnL7Zq3Isl+yzQbagPipR4yI1Q0w5PsebwlbR7ZiifgBl/Gwdn2B3YxEXBcaN9sHELg8nRpTC1OsBfZ37OERau3uzn/7vvSRSQgTbzj4G9wyVcPGTAxMFyXB06AE8b1ZAM/V9JYQX6ObkhBaXngAmLN9XK4G6XtoiaMgnuuky0nHWRvjMFdyfwa8OE8bhFt6GuCfxdJzpZ1QW/x6Idehg9fxnqNGwMExNjnhcmN78LfowQA59B+QSkKq2trDBq5CjUatgEw2cvxgo9yvRXnSRD3gSJiYI5m4+jRZdQZMv2njdBoqJFh52kBKkUzZYWpBhkqCif4Oj5KIycdxfq+aUmSP0V5ojRqsiTAz8vnkOljn0066OI4gb+qvgRm82kzpdyn53VIWNDq/1h0+9x93ODVgHc0CzcsQ+rkgp9zd9ugza9A6Gp9Qa58iTyjng7bWN54meaPDO+0bD0CIWtnT3sdXVgt3U2juvvwjGHUzA/7wxzV8/vGl6zJGFAWLkFcnHgbGiBoMU6uNutPd79XQIfy/4pGXoKK1BCIv0sJwY+h4QEeRsYHyoWxfO6/+Bmn27wXb0Op044wZJ9FwkUSZQoyyXLH+O3IO/lzHU32dgnokLVeMxYdzjZ1QXlII/AeJ01qFa7HnR1t/O5W25eFyQPIQZkoG2Ifr6+MDDQR9u2bdGqWy9MWLYe6wyteaKhnIFOD6jfATFzgz1qNEqAhtZb5PvzI2+CpOcQxWOjwpWsmihLT1OZ3Q4Dn6BAMWrb+xyr1JYhQasMTzKkLXGhmlVRURGJnEWANUck74/c52V5koQArTqzZQeqNwjnRWu4GNA9kCTmTZiQNsZaJgpmrDuBmo3joaH5DrnzJvLtmQfZM0MFjVL9meH5BFGwdA3EcQsTHKeuiJumwMbGmgsF8iLIvu8LaMVOK3dunNnPlIdArv7L+w8hctpk/NuhBZ7X+0dKSCyknpRvkAxhQK8hEUFbGNnPH8sVxIO2TRA+ayYuHDFi4uAc7+BIRY8o3yA5SYi0QNHZdY2LtOJlbmHyCoOfLir0OQt3HMSkFRvwd606WLZ0KZ+zydUtN58LkocQA99BusG8sWH9OnTs3AVNO/fE7E27mSiw+sowpyfkKaB/h88+z5MMyQ1asdpr7o6mznVkeOQeUEH6Q4bnRFgI7yfQpONT3jinlsIPehrjEKxZA40UrtBki7YF268LIfAdaGxmrL0hNbf5JwGzN0ruZ2pgM2fzbgybtfA/IT++W8fQiImAi6hcSyr0Van6K8xcc4NvUSTjJfc9KQ4TBdYXPGFnoo8z+/fgpJEhjp+9xJMMf8U1z3sZMIFAWwkt2Gc4WJ2Ex1ZdRE6djLtd2/EkQmkLY67kCQMO5RuQ54CJib9y8R4KV4YORODyFXA2NOdeA/o+8lrIHTNdm7VHE1Cg0HsUKPwQYxea/VSZ4S9RNiWqWq8hD+sqY95yc7gg+Qgx8APoJqN8Amfnc1i0cAHqN2mG9v2HYvHuI3xyUZWiRcomSDp7jmHQFBfkL/wE6hqJbIX0AhuM4vnkRjFr4SlQTciFSomgi3deQ6mqH6Cd4zUqaSeg28jH2GSawEML4trJQ8ZmkS41t0nEX6XuYOoqfe5+JqOxUPcgmnbqhjY9+8uG+ijctmTvMQyY7IKCfz2CmloiMzIveY18ZT+EVB93ZT7BOXecMjTB6f07cdLUHNYXfaRV9y+IAg4JA/9oqWwxW8HT7gEHyxNw37kXsePHcqOeWKaAZOzJC8AFQlLegawoSIK8BoWZoCieB69rlMPDVg0RPWk8Lh08CpuLUr4Dr4boHwOr4Ejsto9FsdLvoJ37BUbPt/il6oJKyMszd8se1GneGuPGjuU7wigRXG7uFvwcQgwkE8onCAwIwKmTJzFy5CjUbtAY/SbOwPKDxjx88OUkk14omyDRBNeuTwBy5XmFHGpA6x5PsNMmlsesSRTITh6CdIUS2cjoG7pEoHLt13y1SivdZp2eYrslXTvJ8Mm9N6tC47Hi4BXkL/QReQs8lladPDxAQuAAWnXvyw0HPadyzwshPTNGWMyEdNs+gcj9h1RWulX3J9jCczTS4JnhRp+aIIXiuMMlnD56GKcP7IG9tR2sXPyT/v6LooCTZKCpAyIz0uQ1oJyDU3aO8Fu7llcwfNqopuQ5IEFAxp7EAbVclhMEBIkGyjVI2u74scyfeF29HG707wXv9ZvgaGkHI2tvlKryHgp2H/efdpIton5dCNA1XbTjIFr16IuhQ4fCw8NDCIEURIiBn4Q8BVSjwMzUFAMGDECzjl0wYu5SrDeyUR0vAUNZyXDamhOo3zoa6hrvkDf/RwyafA8HTkdLRkWsNFUKEmqmHuHoOkTKeK/bIoxNfCHInfclcuZJRJ/R96FrJXW1FF4CyZW/yTgexcu8xR8FnmD4LKtPcWjyCHTsPxQ1GjaFzt6jzOD/uKCYMnQwY709mnYMh5b2G+TN9xH9xv+LPXYxPJ9A7jhSHN9IHpO3szuD04cO4ozefhy3PwtLtyD5+Dz9Lpl5Bv9HEhfKvANKDKQaB7RTIUhHB1eH9Mfj5vV4vgDfwkjegB95DPhOBiYekpIREysURECljliTaw2WN9+MrStWYi4TaLN2HsLc7Qe+MvY/ghIGO7Br2rtPX1y8eJEv0Ly8vGTnacHPo6DBFPw8lE9AA6i7fRvad+zEDG4HNonoMgN8TKUqGZKXgP4du9gR/9S9xo1MqQpvMGlZUtEicoOKbWrpDhl3yu0YNuMeLz9dvUEEFu7QY9fPhHe1pARRunZFir/D8Jl3eBlXunZZdYshue+puQ0JAe1cL9F/4gksTopD03azvuOmoFL1mpi9aRd/Jr98Lr4HJeVSyG3sIkdUq3+Fj3vxsm8xet4dXp+AREiqi7EkT4DVZT+csDou5RPoH+VeA6Uh569jxtzKyR0mNg4w//IzfhISBpQQaBJ8hecs0C6CC2wsApctx82+3fn2Q+41IJQNl37kOSiZEyijDlTMh3s1KyK8ZWOcHDoE23VW8GtFooAEAjGPrfw/N/6fQ0Kgy9DRbK7tCOdz5z4JAUHKIcTAb0BigIoWXWIqddXKlWjYpCna9x2M+WxVoopNkOjnYTMv8CZIauqJKFP5DVYcuAJzryT3s1htpgtcCDDjNmnJLd6cSrn/eqHuHizZcwTrDIyx6pAJRs07h79K3WfX7gNKlHvLs7NNkornZCVPAYkgyvynzp4KxTv0HHWWx6EXbJeMxuCpc5jgrYhpa7b8tBD4HBLSKw6aYej0iyhS4gFyqH1k3/kGS3Zf44m5aeKh4Vv4mChgq/ZTJuY4vX8HThmb8aRD+r0t+72jsTXs9S1gYn2Glzv+JBR+A56I6C95DCi8QCEF2qlw8bAhImbNwP12zXm+ADVK+lTlkATCt7wHypAChR7Y/1+XL4I7tarAtUcXHJ4+G2tXbYQOE26z2PXjngMmDpRCYDH7f6/RE9GiVWs4OTkJIZBKCDGQApAoIE/BuXNOmDplCpq364j+k2apXH0CHjpgSp8KsHToF8BEwRO+6mnZ9QlvwUsGSew8SFuUQoD2X1MBqXJVrmDa6qM8AW7e1r1YltRIi67d6qMmPFG05yhPFC0phRLqt3z+qatlVsgFofuTCjdRoa3s2T+gy2DnTwlp5BEYOUcHZav8w1vZ/o4QUCKF24yxdL8Fug/3RpHiVMyIPTPdHmOVXlLRorR4ZriBD4Pt2Us4ZWCAMwd24wwTB86WJ+BkdRqOpsdxggkCMxIEfCeCzGf8BiQO+PZFyjugsIJ/LE6dPAfPrbqImTiOFyx6WbsSUJYJg9LsRi7JhMGXguAT5DFg0G4GgomIZ1VKILBdS9iMGom9cxdixbptkijYfQT92FzatEVLnDhhz+dZuTlY8PsIMZCCUD4BVcAyNTXBiBEjUKNBYwyZMZ9NJmwyV7EmSGv1jXgTpFbdg6Gm9g75C71Hz5H3sfdEtOQGFaGDNIF2EejsvIa8+T6gWOk7fP81eQQk43YQg6fNxbBZC3jMm99DTAyQl2fuVlu06yMVz8mZK5H9/IgniNK1y6yhAy6cmOHt0PcxsmX7iDa9XT4JAcoRmLRsHarUrofhsxeliBD4D7Rbx8gQszcfZ0IgFGrqb5E770d2LI+w72SMVNMjDcadDLKlexBsT5/DpZ3bcXnXNjjZnoCjvROcLE7gtKEVzK1/P2SQHKjMshRWSIDtZV+cM7fGhhZHsUF7KUIrNcHHsgUkbwAZfAoncK/B9zwHTEAUy4UXlYsjvnFtePTojP0DBqJjw0bQNzWFf3AwPNkcS3ixBZjcHCz4dYQYSAUodODp6QkDfX107twF9Vq2wZRVm/lkrkpFi2jFQ8JgxtoTbBK9hhxqH/BHgY8YM/9O2jV0ycJYB4Zio3E8L3pT8K/7GLfY5D/7r0kMjJq/DFVq1UWzzj2wQPcAEwUWkJppGbOfjTF703F2f0Wza/ceuf9IxOCp97gLnVasmcnLQ8mVdD59x97nK/PG7Xyx8FNRoYOYtXEnKvxTHVVq1sV0tqpcy4xiajxr9MxQTsHkFadQq0kcEyUfeOOwkbPvwuBSJPfypLqnICkM4Gh9BueNzHHGmnHcBmfZSt3J5gwcDK1xLAVDBsnBJjgCk9b9yzt0VqoRC51VO7Fl6SqYj5sA/46t8ahaWbyhkAIZfmVBo2/lG5B4oHACe82rkvnwb5mCeN6jHa4uXYBgq2PwvXgRXmx+9QgIhKefPxMGTBzIzMOCn0OIgVSCQgcU2yJRsGnTJjRv1Qqte/bjCU0bTI7LTjTpATVB4pUMj5hg6MwLKF2RGrokomzlN3zvdpo1dMlikNDadTwWf5V6hz/yP8aoucdk91/Tdqr5jM4Dh6NCtRroMmQU5mzZk7R7hbbFGXNPwfglDihf9RayZf+IQsXeY/rqm9ydTg2S5L4/I0ErbjKwQ6dLzYZqNgrDvK37JSHABNOM9dtRr1lLLF68GKtXreIu5R6jJvD96Buo4ZjMff9b8HGXqhlSHkcFNu50XOX/fs3HnZI7U7NkNHkH7E+c57kCjuYn4Gh1Gg7WtjhjZQoHe3s4HneAg7EtLK0d+BbC1BYEtB2WvFvq6kCZSteYGDuC+Tv3YU5SYiCxaPNu7Fygg5NDByO0dVPcqvM33lQoIuUb8PoG3xAGypACeRiIUvnxsnld3JkyBlH7diHI1hre7u5wDwqGJ4UQhMfgl1GQsRKkHjTIFOdycnTE3Dmz0apDZ3QePIpPKqrkJSCk2Kg5eiXFpLOxCa5J+6dYtk8qwCK8BCkDufIPOESzFf8rqGu8weBpx39YiGXxrkOYsnIjmnbsihoNmqDHyPHsWhkwgyTdQyToluuZoc84d5SqkNQRrskLPkmTMc2oXgIKDVAuBLXs1tJOZIIo/rPqgge4R6Bh6/aYPXs2F98UpnNkz9qsmTPQsEUrdBs+Div4+KTOs0bhtiV7LdCXjXvhpHyCOs2f82eGhFiqhA6YGDCzOwfLI+awN7DEGSNrnDU9DkcLezhYHMMZG0s42B5nP9vB2tZR/jNSCFooUHXB/AU/cO/WhCXG36wuSKKA8gDm6B7E2pUbcGT6TJweMgiB7VviYfVykrFXFj1SIicQ6DVUDZE8B42r48HAHri2eC7C9Q/Bx8UFHmy+9aBwAhMGnmz+5cjMzYL/IsRAGkH5BBQ+oF7bkyZNQuXqNTFs9mJeDIVvR1SVnQdsxUMT3Pzt1mjTKwg5crxHztwf0abnY+w9EcONSlZIVEstaOz0L0Sx1S0VtklE9+FOzNAnrzQrFdGh0MGYBcvRsG0HVKvfmG9npeu2luelSNdu0Q4rZgS9kTPXS2jnTETzzk+w1TyOi7kMde1ICDDhNG/zdS4EylS+JiVX6krVBSnBslHbTpg4ceKncrTKZ01ZC2TY8OGoUb8Re9YWMbFECbQpnEvAoFDbeiNDzN1iyxNzNbReI1ce6ZnZY8+eGTbmhOw5/iJmbkEwcwmA6VlXGBpawsLYBnaMkwZWcDBhAsHUGA7WZnCwtGGC4Cx7T0SKewjIu7XZNA5FSryDVk6pumByywwrhQGhs2kn1q9ch/3zFuL0wP7wrVAcHysUlqojkseAvAckFL4UB/R/CjnQTgb2unfVSjNxUAP3Rg1C9K7t8HM8C093dy4M3JlQ5AJBCINvIsRAGqOsmEVJhl26dEXDVm0xasEyPqmoWhMk8hTM22qD2s1imVF5wx54YNTcOzjIVrW8PK7wFPwUJKQML0WwlewzngDXtrcr3zUwf7v8hCkLM4LkGl+gux/DZy5ElVr1mLHvgUkr1nNBQCWyyX1N127BDmvUbxXNxNxrvmWxz5j73DgdDwnNEF4e68AwLNlFZYaBQn/dw3gdEyZ0pOqCRNOO3XnhL6pEpxQCXz5r5Jk7fOgQf9Yat+uIsTqrscHYlo1Ryif08nAbY85mW9RtEc0EzFtoMjvVf/x97E8q9JVi406GnRPOdw9QwqDpZT/oHzsJK6szOH7sFOwNzXDS6DDOGuvj1PHTKRoyoHPZYR3La5Zoar/G4KnHky0EvoTqC8zdqYfZO/TQlN3LY8eOhZ/zOcTs2Io7E0biedtGeFu7AhMHf7IbQTOp4uEXYQUSBiQYeK4B+5f97sPfJfCoZ3tcWamDEFMj+J11kIRBQCA82L0hhMF/EWIgnaDViztTrbrbt6MTm6iadOyKOVt281iw3ESTXkitX42Y6j/HDM91vpql+gSTl9/iHfdo5SY3WQj+CyXAUSyZsv7Jldy0kzcTWpQT8Ou93MlTQHQaOBzV2Oq3Vfc+mLNpF9ay1SG/dnzXiDHGLz7LO/RRslux0m/Z/2/zBFGa0OWOVRWg+2rN4QQmAt4jX8HHGDnXkguB+dukMsMtu/dFq9at4ezszA2+3DOmhEQBCYYNGzagQ+cuaNmjL88nWGeUOmXEeT4BEwX0zFSte5Vfb3pmaNyVRYvkzvn3YYbeN1IKI3iEwPDUBVieugRbu5OwPbQfJ62tYeERyATBz7cf/hzycuw7GY1KNV4xsfOa13mQrs2v3ctUH4LEHeVUDRo8BG5ubvBi8yM33P7+8GTXjox53IbVuDNpFJ52ao73/5QEimh/P99AKRCKaHFPw9OOzXB7yljEbl6HYEsLeHpLn+8hIySzIkIMpCM0iVHo4ML581izZjXqNWqCdn0HY+l+Q75yUaXtiJSktnSfOfpPdEXRkg/4SrNa/ZdYvv+qFJNmE0RWKnzzM9C4WDL6j/+Xt9et2yLoUwKc3OT4s+jsPoJpa7YyoTGQb63rPnwslu7VZ0JACj8pC04Nn3WBreTucONUqdprzN5wgxecIuOkStfOih3PLtsYFC72HrlyP8fQ6TafciqolkBHJn7qN2gIe3v7T0m6P4KeNQodOJ49i/nz5qFm3fq84dinZ+1wyj9rVNqYnpkRc86jCD0zOaib6CuemEvhmtR+Zo75RsGC6gIwkWB+3hPWTudh4XQW5pdcYeFFCY4/7yWgY9a/EIkGrZ7zhUGXQeeTwja/IWp3HOTXtFv3HnC5fJmLt/9cP3btaCXvzq6fh68fX+GHmJsidtNa3B09mOcNoHT+z7wDuSWB8HlYgX4mj0JhLSSW/RNv6lbB0y6tcGP+TIQyoUHhBP49Pkw4EllQIAgxoAKQl4AmNUfHs5gwYQKqswm9/8SZvDOiKhUtUq54lu03R+dBvsib/wXvT96y2xNsNJGKFglPwX9RJsDR1jMaqxoNwzBnM63opVoCKQX3ErBJlfbaN2zTAX+ze2jS8vVYdsCQN9IiLwFtR1x+wAw9RnghX4FnXBTUbfEc6w0SuPtaFTwFdP8cOhuFcn+/4cmVAyadYGKHhMBeXl2QinnVqVcPVlZWPDFX7nn6HvSskbGhhmPjx49HrQaNMGjqXC4KUuNZ43kcTIzp7D2GLkN8eBMkug8atH6GLWbxUh5HWjwzvpFSXwOvEJhfuAhzJgosXL2SQgfJ8xRY+oXDxC0Crbs/ZosBCnO5/LYQoGvabdhYtGjZii+KvhICX8INdlIOAL3Wwx3eTEAEHzPH1RWL8bB/V7xu8A/e/12CCQMmCpjx596D/wgDJhRIMJA4YL//WL4Qe09V3Bk/HFF7dyLA3o595iW4+wfAnS3WeK6B3LFkMoQYUCFo9UIPg7mZKQYNHIhGrdpi5Lyl2GBiy1d4cpNNekCGhWq3U2y0YdtIaOV6DS1toO/Yf6WYNOUTqNBKMz0hgTRt1U1pNV4jDjPWHklxIfA55G5dtPMQhs9aiEJ/FeeNekYtWM6ul5XkaaLQgYEhTxBt0SUUfxR4DjV1oOeI+9hmEZeu106ZU0FVFbPnoCJYDklCQNpNMXKuDuo1bAxjY+NPrn+55yg50LNGAtzQwAB9+/ZjK912GDF3Sao9a8qQzexNdrwJUu4/XiIns1HUfGqnTUzaemeYKDB394f5OUcmDC4wUeDDfv9jL8ExnzB0HUyVLz+iSUdfdq/9XpiLhECvMZNQr0FDHLe15ULtZ66phxISCGwl754kEnzPOSHiwB5cmz8DDwZ0w8umtSTPAe/ESPUNPhMGn1dDJPFQVBtva5TD/UE9cXXJfEQc3Affs2fg5ucvCRD2XRS2kDuejI6CBl+gWignun1796Jrj55o1L4z5m7Zm5QcpjqhA56oxlab1NClekNq6JKIEmXfYtzC2zCmRjo0wWWARLXUgrKtF++8hpy5E1Gq/A2eCa/sqpeakIeg1+hJ6Ny1G9asWoUOnTqjUbvOvBgPZdOTS5xWrOTGnrLyNOq1jOHXrlCxdxg46V8ccY7ilRHT8tpJHRsjeAY+Cad2fS5/SkgjozFOZzXqNm6K/fv2ciP+5TPzq9Bnubm5YoeuLlq2aYN6TBQomxulRpiOnheCmk9RYi6dK+VxDJ5yj6+6eeggTcY9yfi7eMHc2QnmbFXO8wlkRAH3brH7YVhSnYe6zZPCXLq/IQR26GHw9HmoWr0GDJggU855KYG7pxfc2Oe5BgbB080NAbbWCD+4F1cXzcbjnh3woUpxSRRQSIFQbmdUCgQSBkwUUK7Be/baZ63q497wfojdsBp+p0/BjUQHiQ+ChAgzpHLHkdEQYkBFIaVGExXF0DZu3IAatWqjTe8BmMseJJqolPvL0xvlimeFnhlGzXVGsTL/Qk3tI0pXeot5W67D1D2NGrqoGLTCpuqC+Qp8ZCv0fzF1lX6aCAFaQfcdPw1NmjXn8XGKk5P7dckSHdSp3wAd+g/BvG37PzXSouRQuo5jFjrxglPUjKd4mXeYue4G72qZFteOXOXHvMPQha06s2VLRJMObNVJhoatOmkr5eQVG1C7QWNs3bqVhwbknpffgZ41+lwap7Vr16B2vfroNGg4+/4DSeIp5T0FUh4He2bmnZOeGfWPKFryPRbqXoMZE0Vp9szw0EEozC97wNzJAeaXXGDhGcxDB5aXLsPkpBWMz53AlBW3kD0b8E+dKMzfSmGpXxcCi5m4G7NoJapUq46DBw+kqBD4End2bclj4MauLxlvr0sX4etwhomDfbg1aTSet6yHd1VLIZFaNVPYgEQACQSlOCBhQL//KxcSyxbE+6ql8aRTC1xdPBdB5qbwcXKCh7s7XP0DmEjwlcSBzHFkBIQYUHFooqJtU64uLpgxfToaNm2O7iPHs0n/sErlE5AooHwC+rnLYN9PBViadHiKVYekhi606pGdkDIZdK7bjsXy/df5Cj76qf3XvwOtoAdNnc1d6ZbHjn2aZJXhJ0dHR0yeNBFNWrdFn/HTsWy/kRQ+4NfOhHsL+k1wRYly/yatAJ9jwfZrvOBUasW1j/myz/UKx6DJUqEkWnXO3SKtOsnDMXX1ZtRq1ATr161NUY+AHDRO5KomEUW5O/XZs9Z12FguvGnb5pf3/O9C484Lfe2zQK/RHp+aTzVq8wyrD1/h2wXT7plJEgWUT3DOCcfdL8PB8yxOu1hj1mJ3qGl+RNmqdzFrw+HfDg3QNa1Wtz42bdyYqkJADi4O2HWWVvY+3O0fcNwWcRtW4e7oIczQN8e7muUkz8GXnRg/hROSkhTZ/180r4PbE0cievtGLg68Ll+Ca4AkDDKax0CIgQyC0lNwjE3yo0aNRk024Q+fvVhKDlOh0AFB7meKjVLRIu2cr5Er70e+6tO1jpFWPJk4dEDnt8MmFmWrvOHNbAZNsWNGLfVyBJRQff6R85aw1VYN6B08KDvJ0j1EngJjIyMMHDgI9Zq1wtBZC//jEqfiOQt3WKHjAH/kzvuSd1KkDn1bzOPYuaVsbQla+ZLQoF4Y9D1V60Vh9saD3NjQ+cxcr4t6zVtj6ZIlqeIR+Baf8gkMDTBixEg0aN0OI+cuZeI7Ke/ii/v9t0lqPkU1Pdr1DYCm9hvk/uMj2vZ6DF0rqflUmj0zPhE45u4PB/dTuBDmio37I5En7zuUzOuN0d07sGPU5R4TuXvwR9A1nb5uOxN3TXnpaGWOQHpD4sCNwkV+/vB2dkao4VEeErgzbhj3HIDqGyjrFyh3KSgFAv0uaYvj6/p/41GvDrgxewoiDuyF16VLPFyRUcIJQgxkMGiSpwQWYzZp9+rdh62kWmHa2q1sUiGXb8pXV/tVeGyUrXqmrTmJWk1jQUV2qAnSoClJMWlmNDNC4ZufgYrkHDgTjap1X7IV3kf0HOWQRjkCepiwZA3KV/4butu3/XC1pVxh792zB506d0H9Vu14Iy0ydlT4SipaRF0tT6Bxu0jkyPEOeZhx6jf2PvQcpa6WKVHemPISpq+6CXXNRFSsHoeZ6w4xg7GHcQBzNu9G/ZZtMW7cOO4ZIwP95XmkNjRO9KwZGuijTdt2qMeOh1d85OGVlH/W6Jkh78yczcdRs3Ecsuf4gDz52DMz+R6vUZFS4/5dfCJxzNkRp11tsPWANwoUSUT5ci/ga70ajnM1MLV7SczezMQtM+xy9+K3oCZbczbvQt0WrTF71kxpHlNB48iFgS8TBiQ+3dzg63gWQZYWiF+7nJc9flOrAj5STwUSAlQSmdc5SBIH3JsghRkoL+FVg39wb0R/ROluge/pU/C6fPmT8CCBoGriQIiBDAg9RKSqiZ07d6B+gwZsRTEIU1YnTeiq4ilIaoJEooBio+X/vs1FQYnybz/FpKkanuyklMGgFe7R85Hcta6m/g6dBl5IEyFAiVjT1mxBtTr1sW7t2h8KASXKe4gKX61btw7NW7VGj1ET2YS9Jymj/v8JopOXn8bfda4yUfCBx7XHL7rFBR3lRfxq33wybLTfnrbZlSh3E1NWGvDxot0Q87fuRb1W7dG3b1+4uLikixBQohwnKoRD49uoSVO06z2Qr3BTJUz32TMzYekZJpJu8nGnPI7pa25Cn3cT/fVx/yGUQ3DJCet3nkXJ0k+RO/cTHF85EW+vHQTu7IDrnpZYOaIy99rM19WTvSe/hIQAFXlq2LYjL8Xup6JC4CvYMbp7SeEEbrzZfejp6oJQ/cO4vmAm9wK8alIdHyr9JW1h5P0SkjwHyt0J3JuQB+8rF8OTrq1xddEchB3Rg9/JE/yz3QICeE6D7PenMQqaDAQZF5qoLly4gLlz5qB56zZo128wFuw4yCZxVWuCJCWq9RvvhpLlpZh0gzbPoLPrmuQl8JOZmDIIJASofS31ACCPQOsebjz57Xdiq8mBDCetoBuylf2iRQs/GU25++Rb0OtpBezg4IAZM6ajEVu5UQGY5QeNPt1DyhXrgEmuKFNZKlpEBafmbLzBjTqdv9y4fAu63qsPJyBfwff4s8gDjFtkmpRTIZUZbtGtN9q3b8+rC5LRkDvutIbGiYTWmTNn+LPWpGVrdB48knsIUkt8kyhYftCMF/oqUVZq3Vyj4Qsmmq7hGBtHq1R4ZsjzsNsuFqXKPYZWzifoOVAPK7orYDZKgWDD9ngashb/ekzAxml1MGvDzh+GDCRxtw8tuvbE0KFDf+keVSnYsbvR6p68B2zu9be1QeRuXVybOx0P+nbB63pVeLIh51PTpaR8AxIGVPSoXEE8a9MQd8cMQdzaFQi0MIMbExvKBET6jk/IHUMqIcRAJkC5eqEmSFOnTWOrxHo8n2CFXlIDm1TIhv4VKGGK6hMs0LXmMWkt7ddSI51OT6FrFSe5QTNYkiGFOsw8w9Gpv5Qw2aidnzQJ/ka2dXLgkyyjbos23JVOk+zvGE56P8XlLczNeDGeqrXr8XwCZXMf8hRQLsiinVboPcYTefM/g4ZWIhq2ec7zCUgQ8Gv3gxWrsnUzeRhy5XmOsQvN/19dcKceOg4ajtZt2uD06dM8PCB3rOkJjRM9a7Y2NnycKtesjRFzddizRsmAKb/zgD8zBkZYyJ6ZHiO9kDPXK2jn+oimHZ7ycaRxT6nmUyQuqLpg1bqv2L38AV2HnsWCrVsxc8lCLFilgwndymJTv5w4tb42EpzGY9PMJliwWZddO3YvfnF/KqGQT6ue/XhviIts0ULjJzeuGRU3trp3ZWLalYkDr/Pn4X/cBuEH9uDGzEm8/PGHikWRSDUOyGPw1/89BVwskDAoU4CHHp52aIpr82Yg2Egfnpcuwd3NjQsEVxIJaSSIhRjIRNDkSdjYWKNL166o17wlRs1fzlYXVGhGhSoZHpX6HczaaMeLFmnnYqKAPRsDJt7D/lMp3NAllaG499DpSS2Dm4bwCTDVPQK6JAT2oXH7Lhg8eDAXASm12qL7hz7PyMgQnbt0QeO2HTFqwQreM0OZT0BbSZVFi3LmeYUcakCngQ+x0yYWtt+5dmS0qGFP6UpvoKH5Wmrd/Kmo0GEMmDwLzVq2xHG22lKGMFQV5ThRMma7tm3RoGVbjF28irdLTo18Ah46YOjsPoYGrSN58ylqMd5r1H3sPSkl5v6sh+ZzlNUFm3Z8Auph0XHARe6tocJCPByge4iHkOZs3IG5m3Zh2ezeMJpZFjuW9MDc7Ye/ukfnbT+IubpH0K7fUDRu3Bhnz56VvAJePvDw9mNjmIG9A9+AjDZf4VNYgT2PHq6u8Dl1EtHbNuLOmMF43qoe3tJOBV4ASYsJAgorMGFA4YSkKokkDt7Wroi7IwYgeutGBFhawMvZmYkNXy463DxTT0wJMZAJoUmKJqvt27ahffsOvKvdxGXrVUoQELTqoSzq8TpnUYMXLQLKMENBnRGNLqt2Ix3ieHAYpq68yfs0VK0bhTmbqJtg6goBgmKwbfsMRL/+A/iW09/xCHwL5Qpuw/r16MhWdW17D8TMDTs+NdJSrlgnLjvDixZlz/4BhYu/x7AZd/nqkucTfDZW5DWg5MPqDV6y11J1wbNJoQGpzPDQmQvQsElT3s1T1YXA59A40fhvYyvotu3bo2W3XqmXT8Dg2xGZKKBnpnqDKzzJsGjJdxi74DYfd0pi/XzckwsJNdrxQ2Gult3cv5PvInkB5m3XY8b+MDf6X76G6lgs37gCi6d2Rvs2zZm4s5PuJ2Ygzx8/CEeTtXC9fJ6Nn2qEgFIVds4UViBj7kFlk40NELd6Ge6MHcq9AZRL8P+GS5+FFCgZsagW3lUtjYd9OuH6vBkI37sTPmfO8M8iweGWwmEEIQYyMRQLvnTpElavWoUmzVug48BhfOUirfBUZzsiGRWKjQ6edgl/lZJio5VrSA1dKIZJhkTVihaRsVu4/Tq0ciaibJUrmLVRj02gabCFcIcej1W379iRx9RT03CSt4FCB87nzmHliuWo27AR2vUdwuv4r2L3EG2zIzFH+QRjFjihfNVb/NqVr/qa7xIgDwFdPzI0hpcj0KLLU/73Dv0u8V0D5N1YvJPKDC9BHfbZR48e5XF5uWNRdehZc3JywrKlS1G7fkOeu7NCz5g/Z6mxHZHGffkBqQlS6UpSZcDKNV/zQl9mnknVP5PxzNBrSHQPmiJ5txq392X3GHkEfl3ULth5GHMXTsGaTgrY7JgAT292TT084XrREWazSsNu6wA2ZmTIMp934LuQMGCLNBf2TNEK3+fMaQQZGSCWahyM6I83dStJYoBEgTL5ULlDoag236Hwonlt/Du4F2LXr4afvR0TBJ6SR4KSEZMEl+x3JwMhBjI5Si8BTejTp09H9Tp10W/iDCzcdUiqUaBC+QRrDIyxZK8Feo7yQL4/nyJHDvDY6EajeDZpqU4TJPIILNt7FXnzJfI++7zfQFrsHGAraCo4Vb9hQ5ymrUpJq/fUhr7Hl4mOkydO8Dh5jXoN+D2ks/soXwFTPsFafSMsY8ap7zg3/FnkMbt2iahW7xVW6V3hnRHb9KTryVad3T0kIZDkERi3eCUTAo2xf98+blDlvj+jQONEODk6YurUKahaqzYGTpkNnb367Fmj4k4pnE/ARBjtOiAh3XuMB2+CRM9MrcYvsMGQnhnJ0MvdwwT93TowlHviSAhUbxDO77PfEQIk7sYsXIkGTVti74KOODajMC472fPQgP2OYUwMlIGL8ylmtNLm3lVZlB4DH1rle/OQgueF8wgyN0HCkvl41L0NXtetjA/kOSBBwHcrkCiQtjNSOIH+9qxtI1yfOw3BBkf49kX6HBc/f/a55Dn4Oc+LEANZBGXWuLWVFfr26YNGrdpg4NS5fFJRpfoEkigwwrxtNmjRVYpJq2sCXQc/wA7rWL6tKj29BOSGXaefgELF3jPB8oRXF0yLokJUwpXKDFevWQvHLCy4wJO7zqkJCUvyREhFiwaiYcu2GDZnMTaYHJcMHV07JgooQbRDf38UKPQMampA215PUKHqFTRs4/+pdTMllk1esRE1k8oMB7DVktx3ZkSUOw+oCmTvXr3RuG0HDJu1iCcZpoZHjj8zTBTQuDfrFI4//qT2wkCP4Q940SJ6ZuTyOEhcT152kzcZK1PpGmas+/3qglTvolrtutiuuwOeLk6wmFcFdlsH4sKJozCdWpiHCDw8M04YKM2gFT0JhKRVPoUCvJ0c+U6F67Om4GHvTnjVqBpQugBQhE2Iyt0KtIWRhxjy4GXjGjz8ELNhDYJNjHgiIgkDEhvJ8RgoaP+sIOtAEzqJAmqC1KNnL15whprAUOhAlSoZUrtkcoVOWOqA2k3j+ORWrPQ7DJl2Dybu6dMEib5z+7FYvuc7Z+4XvLpgmhQVYpPssNmLUaN2HRzS0/sUGpC7vmmBUojs2b0bXbr3QL2W7TBr004uKukeohUr7RqZsc4eTTpGQl0jFN2HW/NQilRU6CCmr92GqnUbYomODj8fue/J6Cg9Nzt37EDnrl3RoFV7LNihx561/1d8TEl4i3HGlFWn2HMdzZ6ZDyha4h0GTPwXh89F/eeZIVFLpaZz5fmIYmVuY+Iyqjz566KW6l2QuKtevyHWrl4jhXuY0Xcy2wSTaUW4KLBZ21Eam3S8dzMUzIC7evvgMgnly5cRcMwc4UwcXJ0zDY+6teVNlKRwAtU0UO5QkDozvqlbGY+7tsbNaeMRwd7jef48XElksPmfoM/+8joIMZBFoQn40sWL2LJlM+rWb4COA4Zh3vYD3O2rSvkEPDaqZ4axix1RuuId3kinVPm3mLX+Bs9+JjdoWngKaPLcfTwGlaq/Rvbs79Bv3MmkBDj5yTGloEY9VB2wep163Ph6q4jhJCNHEz5v7rNmDfdYtOk1gCePcWF52IyHDqiuf/MuI9F16Aws3rmfewRmbdyJqvUbYfSokbzCn9znZxZonOhZo1ogWzZvRv1GjdGx/1DMZ+NA235T/Fk7LNX0IG/BOP7M3EX2HB/xV6l3mLE2qdBXcCiW7r2C3H8Afxa5j7ELzX7rXqZrSkWIajdpwcsMK8M9yjGwWPAP9EcqcM5mLxMIvv8ZH0HycGXj6cLEpQt75lzZM+PpfB4+J09wQ39rwgjeI+H93yWQWPZPKZRQiImCQhpcJHyoWIRvX/x3YA9EbVoL3+M2TBw4889x8WGfR10e2ecLMZCFoQeWVi/UGXH+vHlo3LwFugwdw1cv1NVOdrJJB5Ru0OUHzNB7tDuKlJAautRp+pzH7j/tcZcx4ikBJcHpnY1iq54XbJX7lq1yHdNGCOzUw1QmBGo1bIytW7bwFbncdUxPyCVO95DDmTOYNnUqGjRphh4jx/OVLxeWR80xZMYcNOnQmZ/PvK17Uad5awzo3x+X2X1H75f73MwGnSd55ehZGz9uHOqzceo1ZjIWsDGhfAK5+/53oGeGvAS084CaICmLFlGFzCW7rqFyjTfIlecZRs61/K3E1wVsAUGFr+iaTp48+ZM3hM6ZPAOOpptgOq0ozOaUh836zknjITwDvwUbX1d3D2bMpVU+X+m7uyHAwgyxa1fg7sgBPJfgbY1y//cW8OqI0jZGKqf8pHNLXJ0/E6EH9sLX7jj/DCEGBBzKGre1tcXIESPQsGVr9B43JSnGqVqVDMn9TA1dqGhRrrwvoZ0rEW17PcJ2S2qkk/JeAoq1Gl6K5J3kFNneo10fF+7qpkx4uckxpaDV1ox121C/eSssXbpUJYXA55CxoxWwuZkZb6TVqHV7XoxnnZENZm/ahYrVazExZ4TWvfqjZ48efCdEVhECn6P0FJiZmfKKfPVbtOZJhnRvp5ZHjp4ZKhbVaaAfbz5Votwz1G1xDX3HnfgtUUv1LuZt3Ye6rdph0KCB/z1PZqguOdnBnImAE7vH4ZzVHhhPys/EwQb2N7YS/ey1gpRBWun7cO+B95nTCDl6CLFrluPOqMFSwyVe+IiJAx5SYOKgsBY+livI/3Z3WD8hBgT/h1Q9cfTIEfTt1x+1GzfH6EUrkly+qlOjgFY7FD5QFi2ivdHUBKnPmPvSXmv/lGnoQkKAqgt2TKou2LyLFxcCqV5UiK22yIDWZKtHaltNxuNzt6sqoxQt+keP8H33tZo05zkplWrURts+g9ChU2feSpnusy/fm5VQjtNRNk7dundHvZZtMIutsFOrCZJU6MsYszc6oGbjzWjfdzZ0dievt8C3IMHatFN3dOnSmYeLyPPBz4/uVbZytdvSF6azS8PloiPcPL1hu7EHzGaXxeXzDtKWuM/GQ5CykNfAhfINfP14vgGJgwBzE8SvWIyHfbrgXdVSTAgUkhIQC6oDf6oJMSD4L2R06KGmVRt1tWvVug3a9xnImyCtN7ZRrSRDJgqIcTpnUan6Taipv0fhYh8wZcUtGPCGLr/uKaD3UTW9odOkPdwN2vjzVVSqCwE2wc4ltytbMY4ePSpDCQEldLySu9gNurq6aNCwIYqXKYveffrC3t5e5b0cacXnz9q2bdt47k47/qxtwTqj1GlNvtHEEn3GTUSr7j3Z/fxznQc/R2f3YbTvP5QXNVNWF/x0XswQnTVcBaNxGnA02wh3JgRIHFx2soPx5Pw4vrm39NoMdl9nWNg483ACu0YkEuj/HhcvIvTQAVybPRWPu7XGq4ZVoXB1dYVAIAdN2hTXXTh/Ppq1ao0W3fvwevipVV3tV6EVz7L9Fhg09TLKVJaMd63Gz9nK5Ro37L/SBIlCDuMW3eZb42o0iJBEQKp7BKRGPU0790CvXr15xz56mOWuTUaAjp2MBDVB2rx5Mz8fMnxyr83q0DhR6ISaRTVv3RYdBgzFwp2HUtxLsEbfEqPmL0XTDl0xa8MOfr/J3YvfY/GuQ3yba+s2bXHixAkuaP5/LtL9etZkA84cWQyXS87sPmDGiP2OjJCj6UacPrwAly84fvq9IA2h+SQJFworePvAhV0/P2tLIQYE34cmdMoaP25ri5kzZqBOo8boOWoilh0wBHW1U6WiRRQbXbzLEj1GekIrJ/U7+MgTprZbxvJtVclJMiSPAAmBGWtvQl0DKP9PAps0pT77chNjSrJwx0G06tWfN+ohV3pmMZy0AiYPR0YWNmmBcpyoCdKECeNRq2ETDJgyiz1rRlwUpMSzRnkJFIJq0KodJi1bz139cvfityAhQDkOjZs153UUSMTInYubhzfcPf3Yz/+95m5UY8DT96vfC9IXFw9PIQYEyYMMkxdTkFaWlhgwYADqNW+FwdPn8xjnWoOUz4b+VZQNXahoUaO21NDlFdTUgZ4j72Pfqejvi4IkITB/63X2PqBQsXuYvpqqC6a+EKBM+y5DR3OX+terLUFWgq49bbk0MzXlzaIatqImSKv5/f27XjkSFETNxs0wZsEyJgaSHyqg6oJDZy7kPSSMmPAmz6Hc8QsyJkIMCH4KWr3QJLBr1y50694DTTt2xVidVXwroqp4CQipVKsRJq84jTrNYnkntuJl3mLknDs45BQFm4D/NtIhSCisPHgFhf56h4JFHmLMQvM08QjQJNtvwnQ0aNQYVlaWwpUu4Cg9BTt36KJtu/a84diklRv5VsTfedY2GNuiHhMYg6fO4d4ouXvyS6jexWgmHqrXrYdDhw4JIZAJEWJA8EvQJEX5BOvXrUOL1m14VvG87fuxOqkKndwklB5Q4ZsVB00xat45lCwvNWMpW/kN5my8wT0BtPOAQgP07xazeBQs+h5/FHiMYTOtf2vbVXIht+vwOYv5asvQ0OCbbldB1oWetfPnz2P5sqVo3LwlWvfsj7ns3qH4/688a+sMLNF1yCh0Gjg8WTkDVF1w4tK1qFy9FjZv2sSPR+44BRkbIQYEv4xy5XL2rAPmzZ2LOg0aocuQ0cyIHpJa3aqIp4DyCWgr4tJ9Fug33hX5Cj6FmnoiajZ6gc2m8XwL4TaLBBQr/R7qmq8wYOIJZqSlPvupCYUGxi5aidps3Pbv3ycmWcE3oWeNhOLpU6cwdcoU1G3YhJeoXrznKNYb/lyBMMr1GbNwOeq3bi97X34OhRGo8FWVmnWweNEiIVYzMUIMCH4bZda4jY01Ro0ahRYdOvMmSFSWds1RFWuCdNQYi3ZZonWPYPxR4DnfLUB1BDoPTEDBovfRaxT12U8bITBh6RomBBpjh66ucLsKkoUyTGdtbY2BAwagcet2PHeHP2vJ3XnARDoJ9gpVa/CKkHL3J0Feg9mbdqJa/UaYNHEi/26RBJp5UdB2H4EgJVBOVIcP6aE/m6hqNGzGDN46KRNahUIHytavU1adZKujGCgUr1C2cgQGTrZHWjQe4k1dVm5E7cZNeZiFxkxuPAWCb6H0yu3Q3Y6u3XugTtOWGL90bbLDdCQeyv9THdPXbpUNFfDfUXXBFm0xfNhQ/p0kBL48DkHmQYgBQYpDxo2aIG3ftg3NWrZEk45dMX3ddl7aWNWaIK06Yokh03ejeoNRfN/1Qt3/ToopjVRmeDuvzLdg/nzuUZEbQ4EgOdD9Q/UJ1q1Zg6bNW6Bl996YuXEn1hlaf/dZo781bNuR3ftz+T35+T1KQoAEa4uuvdC/f39cvHhBCIEsgBADglSB3E6UFX/u3DnoLF6MJmyiat9vCBaySWaDsY3sBJUerNY3x9wtO9C4XXtM0Fn11cSYkkhu111MeDTBqJEj4ZbknpMbP4EguSiftfNMFMyZPQuNW7RCj1ETsWDHQSl3R+6+Z2Kg56gJaNt7AA9ZfX6fUlIrdTHt2asXnBwduRdC7nsFmQshBgSpCk1U5CmwszuOKVOm8CZIPUdPVJnQAW3RWn7QCI07dMGQaXO+mhhTChICC7btR71W7dCzZ0+22roohIAgxaHQAdUCGTpkCGo3aoLeY6fw5+xLLwH9f9ziVajVuDkvLay8TxcxIdB9+Fi0a98BJ0+c4CJD7nsEmQ8hBgRpAk0qVEzFyNAA/fr3Q+WatTF6wQqsYBNTSpdc/Vmo50LTTt3Qe8xEvir63IinFLy6YM/+6Ny5M5ycnMRqS5Bq0LPm4eGOI4cPoW+/fqjVqCnG6az5TxMkEgOzNu5ElZp1+Y4Bukfp3ifx0LRFS9jb2fHnVe7zBZkTIQYEaYbSnUn/Hjqkx1Yf7dGUrcgnLl/PE5q+XL2kFVQwqfuwMejQf4hsMtXvorPrMLqyz6emLqdOnRKrLUGq8/mzRrtVWrVpixZdemHiio3YYGLLnzfqjlm7WStMZs+fzp4jGDB5Fho1bQZLy2NCCGRBFFQ4RiBIS+jGo5XxhQsXsHLFCrRs044351m4Uw9rDdO+tLGyeUvj9l0wZ1PKbiuk1Va/CTPQvGUr2NjY8POWGxOBIDWgZ40MO+XuUMJqq3bt0ab3QB4Oo3u/RZeeGDJtLsYsXIHa9Rvi4MEDXETIfZYgcyPEgCDdoImK8gnIJblw4QLUqFuf1+dffpBaE1ukWU4Bfc88ZrirN2jMM/1TyjtAQmDQ1Dlo0KQpTE1N4S4mWUE6Qc8a5RNQw7FpU6eiRr0G6DthGjoNGon6rdqhwj/VsGXzZiZWxT2aVRFiQJDu0GqZIFEwZMgQ1GJGeeishViyzwBr2apdzoCnNLQVq0K1GpiycmOKiIHFbOU1nJ0DCYGjR4/y1ZncuQsEaQltEaRnzdzcDAMGDkSpsuWQJ08eLF++XHgEsjhCDAhUBopv0kR14MABdO/RA41at8f4JWt4jDO1SxtT58V6Ldth6Iz5vy0GKFmQlxmu3xB79+zhe8HlzlcgSC/oWSNhsH37dmzatAmXLl3i3gO51wqyBkIMCFQOWkVTY5atW7egfacuPNOf8gmopnpqJRlS2eRuw8ehA6+FkPy2rl9C7520fD2q1qmPdWvXiNWWQKWh+1N4rQSEEAMClYRWLjRJOZ87h2XLluHvqtXRfcQ4zNu2n/d0T+l8Ar7vWmc1ajdpwdu1yhn6H6Fs6vIPEwLz5s7hXg65cxMIBAJVQ4gBgUqj3Hlw4sQJjBg+DA2bt+R7oSmfICXrE1DxIaqOWK5K1V/yDFBogcoZV6vfGGPHjOHHTYJG7pwEAoFA1VBQrEggUHXIuHp4esLAQB+DBg1CrcZSE6R1hlYp5iUggfFPnQaYtnozFugmP2+AhAB1f6OWsEOGDOYhDjpeufMQCAQCVUSIAUGGgrwEVMp3/759aNGyFeo0b4WZG3b+p7rar0JbGpt16oZBU2cnuywxCYHFOw+hTa/+6NOnN5ydzwkhIBAIMhxCDAgyHOTSokzoixcuYMkSHdSpW483VpG6tVlxl7+csf8hR8zRY8R4tOs98D/12r8H9YXvNGgEunTthjOnT/PQgNwxCwQCgSojxIAgQ0PZ0FTid+qUKWjUvCW6DRuLxcyQ084DWYP/HcizMGzmAtRr0QZL9x6VNf6fQ96DHiMnoE27drCzs+MCRe4YBQKBQNURYkCQ4VHumTY3M8PgwYNRpUZtvs9/hV5SE6RkegrotROWrkXd5q0xb+ue79YboNBA3/HTeC13W1tbIQQEAkGGRogBQaZAGTpwdXGBkZEh2rRug0ZtOmD80nU8wTA5+QRUAnn2xp1o1LYjJjJRsFD3gKwQII/A4GlzUb9JExyzsODeCbljEggEgoyCgpKxBILMAt3Uym19q1etQsvWbdGqR19MW7v1h6WNKddgyV59NO3cnTdvWbTj63bGVINg1LylqFm3Pk9iVCY0CgQCQUZGiAFBpoREAa3YT9jbY97cuajbsBF6jBzPjT5vgvSN0AH1KGjZvQ+6Dx/3VRIhCQEKI5SpWBlr16yWkhhlvlsgEAgyGkIMCDI15CUgTpywx+gxo1G7odQEaek+A274vxQD641s0HXIqK/KElPIYMrKTahYtQbmz5vHPQ9y3ycQCAQZESEGBFkCpafAQF8fHTt2RJN2nTB05kLuJSCUYoBKHQ+fvQjNOnXHnE27uBCgRMI5W/agbvNWmD592qcYm9z3CAQCQUZEiAFBlkK5ot+4YT06de6CBm06YPrabZ+aIJEwoLLCtZsyw79mC/cIUM+BJh26YtSoUfy9lKz4+WcKBAJBRkeIAUGWg1b1lPjn5OiIlStXok79+jyfYP72A1hnZMWFwd+16mHyig28X0GLrr0wYMAAXLhwQQgBgUCQKRFiQJBlIVFASYBnHRwwauRI1GvUBD1GTcQKPRPUb9UOI+YsRvu+g9GzZy/ePVEIAYFAkFlR0GpHIMjKKD0FRoaG3APQuE17VK3fGP/UbYjOXbri9OnTPAlR7r0CgUCQGRBiQCBIQtlXYO+ePWjarBlmzZqN47a2/PdyrxcIBILMghADAsFnkLuMwgH0MwkD4svXCAQCQWZDiAGBQCAQCLI4QgwIBAKBQJDFEWJAIBAIBIIsjhADAoFAIBBkcRTnz5+HQCAQCASCrIsQAwKBQCAQZHGEGBAIBAKBIIsjxIBAIBAIBFkcIQYEAoFAIMjiCDEgEAgEAkEWR+Hs7AyBQCAQCARZFyEGBAKBQCDI4ggxIBAIBAJBFkeIAYFAIBAIsjhCDAgEAoFAkMURYkAgEAgEgiyOEAMCgUAgEGRxFOfOnYNAIBAIBIKsixADAoFAIPhfu3VQAAAIA0DI/omm5WaQ40EHiJMBAIiTAQCIkwEAiJMBAIg7770FALpkAADiZAAA4mQAAOJkAADiZAAA4mQAAOLOvXcBgC4ZAIA4GQCAOBkAgDgZAIA4GQCAOBkAgLgzMwsAdMkAAMTJAADEyQAApM1+YUpsfVxtRVwAAAAASUVORK5CYII=;" vertex="1" parent="1">
          <mxGeometry x="-170" y="100" width="315" height="170.65" as="geometry" />
        </mxCell>
        <mxCell id="wqeLGXHDsi9o7vKBSGzO-137" value="PrfUnion" style="shape=note;whiteSpace=wrap;html=1;backgroundOutline=1;darkOpacity=0.05;size=13;fillColor=#f8cecc;strokeColor=#b85450;" vertex="1" parent="1">
          <mxGeometry x="-80" y="395" width="100" height="30" as="geometry" />
        </mxCell>
        <mxCell id="wqeLGXHDsi9o7vKBSGzO-138" value="VxPrfDivide" style="shape=note;whiteSpace=wrap;html=1;backgroundOutline=1;darkOpacity=0.05;size=13;fillColor=#f8cecc;strokeColor=#b85450;" vertex="1" parent="1">
          <mxGeometry x="-80" y="505" width="100" height="30" as="geometry" />
        </mxCell>
        <mxCell id="wqeLGXHDsi9o7vKBSGzO-139" value="VxPrfBool&lt;div&gt;小的减去大的&lt;/div&gt;&lt;div&gt;如果包含则返回nullptr&lt;/div&gt;" style="shape=note;whiteSpace=wrap;html=1;backgroundOutline=1;darkOpacity=0.05;size=13;fillColor=#f8cecc;strokeColor=#b85450;" vertex="1" parent="1">
          <mxGeometry x="-140" y="652.5" width="170" height="50" as="geometry" />
        </mxCell>
      </root>
    </mxGraphModel>
  </diagram>
</mxfile>
